<svg xmlns="http://www.w3.org/2000/svg" width="187.215" height="150.489" viewBox="0 0 187.215 150.489"><g transform="translate(867.79 -1805.506)"><g transform="translate(-842 1777.575)"><path d="M156.7,364.92h-5.045V350.732A4.729,4.729,0,0,0,146.922,346H99.629a23.625,23.625,0,0,0-18.917,9.475A23.625,23.625,0,0,0,61.8,346H14.5a4.729,4.729,0,0,0-4.729,4.729V364.92H4.729a4.729,4.729,0,1,0,0,9.458h44.7c9.625,0,17.163,2.133,22.4,6.339a14.2,14.2,0,0,0,17.752,0c5.242-4.207,12.78-6.339,22.4-6.339h44.7a4.729,4.729,0,1,0,0-9.458Zm-107.264,0h-30.2v-9.458H61.8a14.2,14.2,0,0,1,14.188,14.188v2.378C69.207,367.314,60.292,364.92,49.432,364.92Zm36.01,7.107v-2.378a14.2,14.2,0,0,1,14.188-14.188h42.563v9.458h-30.2C101.133,364.92,92.218,367.314,85.442,372.027Z" transform="translate(0 -205.415)"/><path d="M34.454,74.2l34.4,9.83v23.457a4.73,4.73,0,0,0,2.614,4.23L92.386,122.17a25.845,25.845,0,0,1,6.308,4.438,4.729,4.729,0,0,0,6.536,0,25.845,25.845,0,0,1,6.308-4.438l20.914-10.457a4.729,4.729,0,0,0,2.614-4.23V84.026l9.458-2.7v35.618a4.729,4.729,0,1,0,9.458,0V78.621L169.471,74.2a4.734,4.734,0,0,0,0-9.095L103.262,46.185a4.726,4.726,0,0,0-2.6,0L34.454,65.1a4.734,4.734,0,0,0,0,9.095Zm91.155,30.364-18.3,9.15a35.307,35.307,0,0,0-5.346,3.3,35.337,35.337,0,0,0-5.347-3.3l-18.3-9.15V86.728l22.347,6.385a4.729,4.729,0,0,0,2.6,0l22.347-6.385ZM101.963,55.65l48.995,14-48.995,14-48.995-14Z" transform="translate(-21.25)" fill="#03427b"/></g><g transform="translate(-867.79 1805.506)" opacity="0.2"><path d="M0,0H15.188V7.594H0Z" transform="translate(30.876 10.756) rotate(-45)"/><path d="M0,0H15.188V7.594H0Z" transform="translate(0 41.62) rotate(-45)"/><path d="M0,0H7.594V15.187H0Z" transform="translate(1.348 5.369) rotate(-45)"/></g></g></svg>