<svg id="dentistry" xmlns="http://www.w3.org/2000/svg" width="63.679" height="85.029" viewBox="0 0 63.679 85.029">
  <path id="Path_346" data-name="Path 346" d="M209.383,323.437c-.176-2.039.174-4.069.149-6.1-.036-2.821-1.461-5.135-2.845-7.418a30.322,30.322,0,0,1-3.737-22.752,15.652,15.652,0,0,1,19.545-12.054,22.045,22.045,0,0,1,4.827,1.753,13.527,13.527,0,0,0,13.093.051,18.31,18.31,0,0,1,11.2-2.161c8.3,1.259,13.294,6.931,14.1,15.513a32.464,32.464,0,0,1-5.281,21.41,12.754,12.754,0,0,0-1.838,7.513c.142,8.535-.2,17.046-2.237,25.392-.98,4.02-2.1,8.005-4.766,11.323a16.081,16.081,0,0,1-1.846,2.006c-1.373,1.219-2.921,2.119-4.825,1.4a4.916,4.916,0,0,1-3.146-4.49,127.853,127.853,0,0,0-2.967-18.394,34.972,34.972,0,0,0-2.911-8.5c-.408-.748-.76-1.657-1.767-1.682-1.1-.027-1.488.936-1.9,1.733a39.955,39.955,0,0,0-3.211,9.749,116.247,116.247,0,0,0-2.654,17.141,5.991,5.991,0,0,1-.851,2.579,4.086,4.086,0,0,1-6.086,1.317c-3.109-2.217-4.771-5.448-6.064-8.9a64.515,64.515,0,0,1-3.492-18.255C209.675,328.888,209.542,326.161,209.383,323.437Zm4.427-1.012a89.336,89.336,0,0,0,2.535,22.456,21.88,21.88,0,0,0,3.913,8.733c.352.43.745,1.166,1.344.97.625-.2.415-1.015.47-1.581a106.908,106.908,0,0,1,3.732-20.521c.96-3.194,2.082-6.342,4.424-8.835,2.52-2.681,5.494-2.566,7.887.249a16.518,16.518,0,0,1,2.708,4.539c3.163,7.838,4.439,16.078,5.235,24.422.052.562-.21,1.361.447,1.586.723.249,1.093-.533,1.488-1,2.056-2.451,3-5.414,3.776-8.439a94.151,94.151,0,0,0,2.512-25.834,18.244,18.244,0,0,1,2.759-10.219,29,29,0,0,0,4.008-19.435,11.5,11.5,0,0,0-12.538-10.307,20.678,20.678,0,0,0-6.873,2.139,16.967,16.967,0,0,1-14.328.383,46.543,46.543,0,0,0-5.1-1.965c-7.7-2.271-13.65,2.063-15.009,8.166a25.668,25.668,0,0,0,3.273,19.93c2.422,3.832,3.837,7.882,3.344,12.477A19.539,19.539,0,0,0,213.81,322.424Z" transform="translate(-202.195 -274.577)" fill="#fff"/>
  <path id="Path_347" data-name="Path 347" d="M208.1,290.061a13.809,13.809,0,0,1,1.345-7.112,5.616,5.616,0,0,1,2.393-2.527,2.282,2.282,0,0,1,3.145.662,1.978,1.978,0,0,1-.487,2.972,5.091,5.091,0,0,0-1.791,4.128c-.232,3.972.242,7.814,2.5,11.243a5.259,5.259,0,0,1,.374.711c.633,1.4.366,2.659-.689,3.263a2.461,2.461,0,0,1-3.216-.978,20.051,20.051,0,0,1-3.222-7.983A18.086,18.086,0,0,1,208.1,290.061Z" transform="translate(-198.141 -270.774)" fill="#fff"/>
</svg>
