<svg id="dermatology" xmlns="http://www.w3.org/2000/svg" width="84.48" height="84.505" viewBox="0 0 84.48 84.505">
  <path id="Path_350" data-name="Path 350" d="M248.424,425.062a42.24,42.24,0,1,1-42.049-42.282A42.231,42.231,0,0,1,248.424,425.062Zm-42.175,1.732h-28.7q-4.683,0-9.364,0c-.566,0-.571.008-.559.556a26.008,26.008,0,0,0,.254,2.74,37.818,37.818,0,0,0,3.279,11.285,38.625,38.625,0,0,0,10.976,13.911,37.9,37.9,0,0,0,8.351,5.073,38.591,38.591,0,0,0,12.95,3.239,37.571,37.571,0,0,0,6.112-.058,38.35,38.35,0,0,0,21.315-8.757,42.805,42.805,0,0,0,5.123-5.108,34.183,34.183,0,0,0,2.565-3.482,38.236,38.236,0,0,0,6.224-18.785c.035-.609.012-.612-.587-.612q-4.768,0-9.538,0Zm-.045-3.623v0h29.624c2.8,0,5.6-.012,8.4.007.456,0,.607-.138.544-.576-.042-.287-.053-.579-.077-.869a37.182,37.182,0,0,0-1.827-8.92,38.489,38.489,0,0,0-12.661-18.073,37.554,37.554,0,0,0-8.4-5.078,38.573,38.573,0,0,0-14.315-3.274,37.8,37.8,0,0,0-6.541.34,38.493,38.493,0,0,0-22.548,11.45,37.633,37.633,0,0,0-4.225,5.178,38.291,38.291,0,0,0-5.173,11.088,37.646,37.646,0,0,0-1.377,8.036c-.04.686-.018.688.674.688Q187.256,423.173,206.2,423.172Z" transform="translate(-163.945 -382.78)" fill="#fff"/>
  <path id="Path_351" data-name="Path 351" d="M209.11,430.171a1.742,1.742,0,0,1-1.206,1.752,1.707,1.707,0,0,1-1.987-.612c-1.327-1.79-2.636-3.591-3.946-5.391q-2.753-3.782-5.5-7.57c-.778-1.073-1.562-2.144-2.331-3.224a1.782,1.782,0,0,1,.417-2.486,1.755,1.755,0,0,1,2.46.357c1.387,1.874,2.748,3.768,4.121,5.653q3.792,5.2,7.582,10.409A1.631,1.631,0,0,1,209.11,430.171Z" transform="translate(-143.978 -363.049)" fill="#fff"/>
  <path id="Path_352" data-name="Path 352" d="M188.916,431.1a1.787,1.787,0,0,1-3.234,1.056c-1.055-1.43-2.1-2.87-3.14-4.308q-2.851-3.922-5.7-7.844c-.966-1.33-1.941-2.653-2.9-3.986a1.8,1.8,0,0,1,.4-2.49,1.759,1.759,0,0,1,2.486.37c1.015,1.368,2.012,2.75,3.017,4.126q3.039,4.165,6.075,8.328,1.324,1.817,2.64,3.646A1.717,1.717,0,0,1,188.916,431.1Z" transform="translate(-157.483 -362.46)" fill="#fff"/>
  <path id="Path_353" data-name="Path 353" d="M187.679,414.993a1.744,1.744,0,0,1,1.211-1.732,1.813,1.813,0,0,1,2.049.7c.839,1.138,1.66,2.289,2.493,3.432.721.99,1.453,1.971,2.173,2.96q2.641,3.637,5.273,7.278c.562.776,1.13,1.548,1.689,2.326a1.788,1.788,0,0,1-.339,2.595,1.739,1.739,0,0,1-2.478-.4c-1.068-1.4-2.1-2.837-3.135-4.26q-3.194-4.378-6.382-8.76-1.144-1.572-2.279-3.152A1.494,1.494,0,0,1,187.679,414.993Z" transform="translate(-148.079 -362.46)" fill="#fff"/>
  <path id="Path_354" data-name="Path 354" d="M195.947,431.077a1.778,1.778,0,0,1-1.195,1.71,1.8,1.8,0,0,1-2.087-.687c-.738-.994-1.458-2-2.186-3q-3.069-4.222-6.135-8.443-1.644-2.26-3.3-4.517a1.808,1.808,0,0,1-.19-2.014,1.693,1.693,0,0,1,1.649-.944,1.784,1.784,0,0,1,1.44.794q4.415,6.077,8.824,12.159,1.384,1.91,2.775,3.814A1.839,1.839,0,0,1,195.947,431.077Z" transform="translate(-152.786 -362.455)" fill="#fff"/>
  <path id="Path_355" data-name="Path 355" d="M187.677,416.284a10.688,10.688,0,0,1-6.274-2.243,11.971,11.971,0,0,1-5-8.2,9.736,9.736,0,0,1,1.248-6.187,34.49,34.49,0,0,1,2.243-3.442,78.356,78.356,0,0,1,5.516-6.643c.305-.334.594-.682.919-1a1.831,1.831,0,0,1,2.7.179c1.236,1.358,2.46,2.725,3.638,4.131a51.9,51.9,0,0,1,4.584,6.222,10.3,10.3,0,0,1,1.64,5.675,11.1,11.1,0,0,1-2.535,6.8,12.278,12.278,0,0,1-6.818,4.468A9.6,9.6,0,0,1,187.677,416.284Zm7.612-11.6a6.155,6.155,0,0,0-.706-2.952,24.041,24.041,0,0,0-2.039-3.205c-1.385-1.879-2.875-3.671-4.427-5.413-.556-.624-.551-.636-1.1.018-1.028,1.226-2.081,2.436-3.069,3.694a28.136,28.136,0,0,0-3.426,5.111,6.015,6.015,0,0,0-.442,4.091,8.826,8.826,0,0,0,4.662,5.867,5.621,5.621,0,0,0,4.892.377,8.548,8.548,0,0,0,2.64-1.6A8.25,8.25,0,0,0,195.289,404.685Z" transform="translate(-155.675 -379.252)" fill="#fff"/>
  <path id="Path_356" data-name="Path 356" d="M199.713,394.608a5.989,5.989,0,0,1,6,6.119,6.023,6.023,0,0,1-12.044-.129A5.947,5.947,0,0,1,199.713,394.608Zm-2.426,6a2.382,2.382,0,0,0,2.5,2.411,2.485,2.485,0,0,0,2.344-2.424,2.456,2.456,0,0,0-2.533-2.416A2.42,2.42,0,0,0,197.287,400.6Z" transform="translate(-144.072 -374.876)" fill="#fff"/>
</svg>
