<svg xmlns="http://www.w3.org/2000/svg" width="84.67" height="81.288" viewBox="0 0 84.67 81.288">
  <g id="diagnostics" transform="translate(1897 -1117)">
    <path id="Path_363" data-name="Path 363" d="M899.831,267.376c4.317,0,8.637.022,12.954-.017.925-.009,1.275.241,1.3,1.217.047,2.136.1,2.134-1.982,2.127-.636,0-1.273.036-1.9-.011-.769-.056-1.006.284-.972,1.008.043.888.008,1.779.008,2.668,0,1.188.126,1.324,1.333,1.162a13.258,13.258,0,0,0,6.826-2.922,17.473,17.473,0,0,0,6.277-12.192,18.565,18.565,0,0,0-3.721-13.61,13.8,13.8,0,0,0-6.837-4.947c-.758-.243-.9-.47-.363-1.141a7.75,7.75,0,0,0,1.5-6.991c-.229-.938-.162-1.015.763-.741a25.2,25.2,0,0,1,14.2,10.6,26.289,26.289,0,0,1,4.4,15.793c-.448,12.328-9.092,22.619-20.59,24.915a7.426,7.426,0,0,1-1.416.122c-4.509.008-9.016-.019-13.526.023-.944.009-1.3-.261-1.273-1.237.056-2.189.039-4.381.007-6.57-.011-.778.263-1.074,1.053-1.059,2.063.036,4.128.013,6.19.011,1.292,0,1.292-.006,1.294-1.335,0-.825-.049-1.655.011-2.477.064-.842-.254-1.089-1.085-1.085-5.714.03-11.431.015-17.146.019-1.564,0-1.564,0-1.555-1.58a6.578,6.578,0,0,0,0-.666c-.083-.837.3-1.1,1.115-1.094C891.068,267.391,895.45,267.376,899.831,267.376Z" transform="translate(-2745.958 903.742)" fill="#854676"/>
    <path id="Path_364" data-name="Path 364" d="M883.618,233.3c1.525,0,3.048-.017,4.573,0a2.885,2.885,0,0,1,2.943,1.839,2.085,2.085,0,0,1-.09,1.929,3.711,3.711,0,0,0-.47,2.183c.008,6.73.017,13.462-.015,20.194a1.613,1.613,0,0,0,1,1.7,17.386,17.386,0,0,1,4.366,27.771c-4.925,4.865-10.933,6.427-17.546,4.336-6.677-2.112-10.722-6.862-12.008-13.749a17.276,17.276,0,0,1,9.142-18.311,1.674,1.674,0,0,0,1.081-1.739c-.038-6.826-.023-13.652-.013-20.479a3.39,3.39,0,0,0-.406-1.717A2.63,2.63,0,0,1,878.1,233.4a15.68,15.68,0,0,1,2.755-.1c.921-.013,1.843,0,2.762,0Zm4.927,16h-.017c0-3.326-.025-6.655.015-9.981.011-.918-.3-1.9.339-2.743.188-.244.34-.468.216-.771-.149-.359-.483-.372-.8-.372-1.047-.008-2.095-.006-3.142-.006-2.063,0-4.125,0-6.186.006-.344,0-.732-.038-.9.365a.671.671,0,0,0,.271.835c.348.29.258.7.258,1.064q.011,11.711.021,23.418a1.17,1.17,0,0,1-.848,1.273,15.4,15.4,0,1,0,11.7.026,1.256,1.256,0,0,1-.925-1.329C888.558,257.154,888.545,253.226,888.545,249.3Z" transform="translate(-2763.095 904.134)" fill="#854676"/>
    <path id="Path_365" data-name="Path 365" d="M906.283,268.543q-9.567,0-19.137,0c-1.232,0-1.273-.045-1.281-1.294,0-.6-.013-1.205.011-1.809a4.764,4.764,0,0,1,4.964-4.8q11.615-.02,23.23-.006c2.508,0,5.015-.008,7.522,0a4.829,4.829,0,0,1,5.051,4.929c.017.572-.03,1.145.01,1.713.062.908-.241,1.29-1.235,1.281-4.855-.043-9.71-.017-14.565-.017h-4.569Z" transform="translate(-2745.693 928.202)" fill="#854676"/>
    <path id="Path_366" data-name="Path 366" d="M889.524,240.725c0-3.618-.006-7.234,0-10.852.006-2.193,1.095-3.279,3.278-3.285,2.411-.006,4.823-.009,7.234,0a2.754,2.754,0,0,1,3.078,3.042c.006.888-.032,1.779.013,2.665.038.735-.269.976-.982,1.053a7.948,7.948,0,0,0-6.267,11.45,7.83,7.83,0,0,0,6.277,4.394c.8.105,1.021.417.97,1.149-.047.664,0,1.333-.015,2a2.621,2.621,0,0,1-2.435,2.785,22.75,22.75,0,0,1-2.753.086q-2.473.014-4.949,0c-2.356-.015-3.449-1.109-3.45-3.445Q889.521,246.244,889.524,240.725Z" transform="translate(-2742.47 898.23)" fill="#854676"/>
    <path id="Path_367" data-name="Path 367" d="M887.509,228.61c1.333,0,2.668-.021,4,.006a2.714,2.714,0,0,1,2.358,4.133,3.22,3.22,0,0,0-.374,1.728q0,14.193,0,28.383a6,6,0,0,1-4.413,6.07,5.9,5.9,0,0,1-7.484-5.156c-.276-3.2-.1-6.408-.115-9.614-.036-6.666-.015-13.332-.006-20a2.8,2.8,0,0,0-.369-1.442,2.714,2.714,0,0,1,2.311-4.1c.7-.028,1.4-.008,2.1-.008C886.175,228.609,886.843,228.609,887.509,228.61ZM883.6,248.191c0,4.923-.008,9.844,0,14.765A3.9,3.9,0,0,0,887.5,267.1c2.292.009,3.844-1.655,3.851-4.159.009-3.016,0-6.032,0-9.048q0-10.335.009-20.669c0-.427-.117-.906.369-1.2.32-.192.558-.455.421-.859a.842.842,0,0,0-.917-.53c-.921,0-1.841-.006-2.762-.006q-2.333,0-4.667,0a.855.855,0,0,0-.888.421.579.579,0,0,0,.117.782c.668.389.557,1,.557,1.6Q883.6,240.809,883.6,248.191Z" transform="translate(-2750.216 900.008)" fill="#854676"/>
    <path id="Path_368" data-name="Path 368" d="M906.086,237.394a6.377,6.377,0,0,1-6.341,6.373,6.405,6.405,0,1,1,.141-12.807A6.425,6.425,0,0,1,906.086,237.394Zm-6.467,3.479a3.435,3.435,0,0,0,3.629-3.368,3.537,3.537,0,1,0-7.072-.171A3.418,3.418,0,0,0,899.619,240.873Z" transform="translate(-2739.157 902.082)" fill="#854676"/>
    <path id="Path_369" data-name="Path 369" d="M895.03,229.568c-.983,0-1.967-.03-2.95.009-.758.03-1.108-.222-1.068-1.03.049-1.013,0-2.031.017-3.044a2.976,2.976,0,0,1,2.824-3.024,14.973,14.973,0,0,1,2.377-.006,2.978,2.978,0,0,1,2.856,2.905c.064,1.108,0,2.221.026,3.33.015.681-.325.876-.942.865C897.124,229.551,896.077,229.568,895.03,229.568Z" transform="translate(-2741.162 894.572)" fill="#854676"/>
    <path id="Path_370" data-name="Path 370" d="M895.126,242.171c1.106,0,2.213.011,3.319-.006.432-.006.658.147.654.6-.011,1.235.064,2.478-.045,3.7a2.876,2.876,0,0,1-3,2.7c-.76.021-1.523.036-2.281,0a2.846,2.846,0,0,1-2.728-2.668c-.056-1.17,0-2.345-.023-3.516-.011-.636.3-.818.884-.807,1.074.019,2.149.006,3.225.006Z" transform="translate(-2741.157 911.947)" fill="#854676"/>
    <path id="Path_371" data-name="Path 371" d="M882.3,256.772q6.713,0,13.426,0c1.132,0,1.258.162,1.083,1.292a14.731,14.731,0,0,1-29.138-.017c-.166-1.115-.038-1.273,1.108-1.275Q875.538,256.768,882.3,256.772Z" transform="translate(-2761.761 924.807)" fill="#854676"/>
    <path id="Path_372" data-name="Path 372" d="M889.07,246.883c0,2.76.005,5.519-.006,8.279a4.981,4.981,0,0,1-.2,1.692,3.277,3.277,0,0,1-3.46,2.123,3.228,3.228,0,0,1-2.774-3.161c-.032-4-.015-8-.015-12,0-1.937.021-3.874-.007-5.81-.009-.694.252-.978.944-.968,1.493.021,2.986.024,4.477,0,.718-.013,1.015.243,1.008,1-.032,2.95-.013,5.9-.013,8.849Z" transform="translate(-2748.562 907.431)" fill="#854676"/>
    <path id="Path_373" data-name="Path 373" d="M898.035,232.869a2.959,2.959,0,0,1,2.877,2.937,3.035,3.035,0,0,1-2.732,2.8,2.968,2.968,0,0,1-3-2.813A2.887,2.887,0,0,1,898.035,232.869Z" transform="translate(-2737.49 903.763)" fill="#854676"/>
  </g>
</svg>