<svg xmlns="http://www.w3.org/2000/svg" xmlns:xlink="http://www.w3.org/1999/xlink" width="303.8" height="48.12" viewBox="0 0 303.8 48.12"><defs><linearGradient id="a" x1="0.5" y1="-1.279" x2="0.5" y2="0.736" gradientUnits="objectBoundingBox"><stop offset="0" stop-color="#fff"/><stop offset="1" stop-opacity="0"/></linearGradient></defs><path d="M1015.349,334.666s13.876,2.925,20.043,1.1a26.892,26.892,0,0,0,21.585-14.257s6.689-13.523,18.5-4.387c0,0,12.533,20.447,24.521-10.6,0,0,15.333-22.217,29.443-2.613,0,0,18.5,39.4,35.462,26.241,0,0,15.307-14.258,40.087,6.58,0,0,15.53,11.121,26.211-3.29,0,0,2.918-12.17,13.876-18.645,0,0,13.747-6.328,21.585,17.548,0,0,7.211,10.7,13.96-18.932,0,0,7.9-16.089,23.134,5.47,0,0,3.963,8.175,14.242,15.122" transform="translate(-1015.04 -294.219)" stroke="#b7b7b7" stroke-width="3" opacity="0.2" fill="url(#a)"/></svg>