<svg id="family-medicine" xmlns="http://www.w3.org/2000/svg" width="85" height="83.264" viewBox="0 0 85 83.264">
  <path id="Path_348" data-name="Path 348" d="M181.078,358.093c-.046,8.407-2.869,15.965-7.136,23.051-5.084,8.438-11.81,15.471-19.08,22.026a137.052,137.052,0,0,1-14.078,11.123,3.511,3.511,0,0,1-4.556-.008c-13.6-9.729-25.421-21.149-33.853-35.74-4.008-6.934-6.569-14.3-6.273-22.517.431-11.982,10.39-22.807,22.3-23.874,7.332-.657,13.787,1.374,19.055,6.672.708.71,1.184,1.008,2.111.178,7.64-6.831,16.424-9.2,26.013-5.167,10.345,4.354,15.5,12.569,15.5,23.886Zm-80.128,1.589c0,5.274,1.861,11.5,5.844,18.08,7.779,12.86,18.646,22.743,30.522,31.658a1.841,1.841,0,0,0,2.616-.087c2.561-2.036,5.22-3.95,7.743-6.031,8.814-7.262,16.793-15.293,22.714-25.171,4.515-7.529,6.853-15.522,5.413-24.406-2.111-13.017-13.118-19.907-25.686-15.9a21.937,21.937,0,0,0-10.5,7.615c-.784.985-1.322,1.211-2.027.014a12,12,0,0,0-.886-1.186c-5.059-6.569-16.485-10.511-25.741-4.9C103.826,343.7,100.781,350.16,100.95,359.682Z" transform="translate(-96.078 -331.865)" fill="#fff"/>
  <path id="Path_349" data-name="Path 349" d="M110.319,380.991c-4.609-6.2-8.267-12.761-9.356-20.494-.809-5.728-.34-11.291,2.9-16.227,7.82-11.926,21.968-10.744,29.733-1.548,1.742,2.063,1.736,2.149,3.581.084,5.045-5.647,11.3-8.265,18.754-6.722,7.717,1.6,11.724,7.1,13.365,14.468,2.01,9.014-.375,17.236-4.871,25.01a66.773,66.773,0,0,1-6.8,9.688c-.583.688-1.076,1.11-1.979.411-1.066-.825-2.5-.511-4.007-1.076,2.532-1.634,2.156-4.027,2.014-6.35a2.794,2.794,0,0,0-1.121-2.055c-1.381-1.1-5.132-.867-6.232.378-1.726,1.952-1.206,5.711,1.1,7.967-.007.337-.26.37-.506.407a6.353,6.353,0,0,0-5.023,8.687c.541,1.446,1.18,2.852,1.779,4.275.258.614.387,1.237-.325,1.612-.924.488-1.018-.4-1.245-.89-.624-1.343-1.215-2.7-1.755-4.082a9.149,9.149,0,0,1,2.756-10.509,3.593,3.593,0,0,0,.438-.339c.5-.573.171-6.693-.479-7.151-.725-.512-.679-.847-.082-1.411a3.967,3.967,0,0,0,.761-5.329c-.712-1.288-1.11-2.744-1.723-4.092a3.707,3.707,0,0,0-6.97.019c-.8,1.8-1.47,3.668-2.27,5.475-.695,1.569.233,2.653,1.107,3.647.741.84.878,1.2-.186,1.906-2.116,1.406-2.3,2.724-1.061,4.977.563,1.027,1.045,2.1,1.555,3.155.106.221.3.536.226.686-1.221,2.361.53,4.13,1.124,6.149.645,2.186,1.033,4.448,1.528,6.677.322,1.446.624,2.9.961,4.339.181.78-.019,1.454-.792,1.62-.946.2-.826-.727-.948-1.254q-1.2-5.232-2.322-10.484c-.37-1.721-1.047-3.026-3.119-2.989-1.095.021-.927-.515-.358-1.11a.941.941,0,0,0,.125-.137c.585-.91,2.166-1.264,1.957-2.51a9.966,9.966,0,0,0-2-4.132,2.99,2.99,0,0,0-5.1.334c-.063.1-.1.228-.175.327-1.856,2.568-2.085,4.913,1.316,6.77-1.232.715-2.518.328-3.25,1.348a9.667,9.667,0,0,0-1.056,2.937c-.113.356-.228.778-.722.621a1.125,1.125,0,0,1-.823-1.122,5.376,5.376,0,0,1,1.232-3.6c.583-.611.879-1.1.281-1.892a2.509,2.509,0,0,1-.053-2.8q.749-1.488,1.494-2.98a4.562,4.562,0,0,1,4.9-2.871,1.578,1.578,0,0,0,1.964-1.177c.349-1.073,2.25-1.784.76-3.283a.3.3,0,0,1-.1-.156c-.157-3.522-2.953-3.174-5.221-3.49-1.346-.188-1.974-.447-.71-1.675a2.3,2.3,0,0,0,.553-1.723c0-1.73-.024-3.459.012-5.187.029-1.417-.7-1.959-2.031-2.07-4.688-.393-4.96-.193-4.9,4.518.022,1.733-.5,3.594,1.008,5.095.441.44-.044.818-.535.823-1.547.014-2.948.749-4.542.7-2.7-.082-4,1.363-4.121,4.12C110.646,377.179,110.916,379.078,110.319,380.991Zm47.055-21.783c0-4.065,0-4.065,3.767-4.067,4.843,0,4.812,0,4.465-4.816-.1-1.346-.712-1.856-1.995-1.824-1.357.036-2.72-.067-4.073.019-1.571.1-2.3-.457-2.181-2.108.092-1.228.029-2.469.015-3.7-.026-2.181-.246-2.39-2.488-2.428-4.156-.068-4.149-.068-4.159,4.113-.009,4.631.356,4.089-4.037,4.106-4.549.017-4.672.168-4.407,4.684.084,1.423.736,1.981,2.094,1.957,1.482-.027,2.965.036,4.446,0,1.314-.034,1.94.51,1.908,1.86-.036,1.543,0,3.088.019,4.631a1.713,1.713,0,0,0,1.558,1.935c4.274.71,5.069.068,5.067-4.171Z" transform="translate(-92.853 -329.228)" fill="#fff"/>
</svg>