<svg id="healthcare_emergency" data-name="healthcare–emergency" xmlns="http://www.w3.org/2000/svg" width="84.438" height="81.166" viewBox="0 0 84.438 81.166">
  <path id="Path_374" data-name="Path 374" d="M811.734,282.078h1.724c.968.106,1.94.172,2.9.361a22.179,22.179,0,0,1,13.685,8.2c.185.237.289.237.478-.006a22.1,22.1,0,0,1,13.1-8.078,27.352,27.352,0,0,1,3.533-.48h1.809q.619.072,1.237.141a29.358,29.358,0,0,1,8.167,1.989A16.5,16.5,0,0,1,868.31,295a22.022,22.022,0,0,1,.855,7.315,28.845,28.845,0,0,1-.852,6.382,36.624,36.624,0,0,1-3.944,8.91c-.3.509-.294.507-.822.276a24.979,24.979,0,0,0-14.1-1.885,24.286,24.286,0,0,0-13.129,6.275,24.8,24.8,0,0,0-8.162,21.585,23.954,23.954,0,0,0,3.127,9.591c.259.454.231.511-.28.609a3.46,3.46,0,0,1-3.074-.983q-4.216-3.719-8.26-7.625a185.716,185.716,0,0,1-17.267-18.85,73.439,73.439,0,0,1-7.714-11.705,28.166,28.166,0,0,1-2.851-7.908c-.207-1.172-.311-2.357-.443-3.54v-3.962c.1-.767.183-1.537.318-2.3a16.439,16.439,0,0,1,7.227-11.252,23.526,23.526,0,0,1,9-3.368C809.2,282.337,810.464,282.191,811.734,282.078Zm52.358,26.792a29.246,29.246,0,0,0-.607-9.065c-1.026-4.127-3.155-7.467-6.988-9.526A17.6,17.6,0,0,0,846.8,288.4a.641.641,0,0,0,.2.07c.085.018.168.033.254.05a18.69,18.69,0,0,1,11.635,7.188A27.961,27.961,0,0,1,864.092,308.87Z" transform="translate(-791.401 -282.078)" fill="#fff"/>
  <path id="Path_375" data-name="Path 375" d="M834.072,346.694a30.241,30.241,0,0,1-3.575-.491,22.595,22.595,0,1,1,26.925-26.318c.152.8.231,1.615.345,2.424v3.62a24.258,24.258,0,0,1-.656,3.766Q853.239,343,839.76,346.237a25.985,25.985,0,0,1-3.362.457Zm1.085-3.585a19,19,0,1,0-18.939-19.1A19.042,19.042,0,0,0,835.157,343.11Z" transform="translate(-773.328 -265.529)" fill="#fff"/>
  <path id="Path_376" data-name="Path 376" d="M835.336,328.842c0,1.435-.007,2.872.006,4.307.005.383-.113.531-.515.53q-3.641-.022-7.28,0c-.42,0-.542-.15-.541-.552.011-2.814.006-5.629.006-8.443,0-.659,0-.661-.674-.661q-4.157,0-8.313,0c-.568,0-.578-.011-.578-.581q0-3.574,0-7.151c0-.557.028-.587.583-.587q4.177-.005,8.358,0c.616,0,.624-.007.624-.628q0-4.071,0-8.143c0-.578.028-.609.607-.609q3.555-.006,7.108,0c.585,0,.607.026.607.607q0,4.094,0,8.186c0,.567.019.585.578.585q4.094,0,8.186,0c.679,0,.689.011.691.705V323.3c0,.72,0,.722-.706.722h-8.141c-.605,0-.607,0-.607.6C835.336,326.027,835.338,327.434,835.336,328.842Z" transform="translate(-769.223 -261.436)" fill="#fff"/>
</svg>
