<svg xmlns="http://www.w3.org/2000/svg" width="84.614" height="84.614" viewBox="0 0 84.614 84.614">
  <g id="humanitarian" transform="translate(2303.663 -1119)">
    <path id="Path_357" data-name="Path 357" d="M119,472.841h23.9a2.478,2.478,0,0,0,2.478-2.478v-5.31a14.439,14.439,0,0,0-7.51-12.658,9.117,9.117,0,1,0-13.834,0,14.439,14.439,0,0,0-7.51,12.658v5.31A2.478,2.478,0,0,0,119,472.841Zm11.949-30.534a4.159,4.159,0,1,1-4.16,4.158A4.164,4.164,0,0,1,130.946,442.308Zm-9.47,22.745a9.47,9.47,0,1,1,18.94,0v2.832h-18.94Z" transform="translate(-2392.302 681.651)" fill="#fff"/>
    <path id="Path_358" data-name="Path 358" d="M129.223,471.11a9.06,9.06,0,0,0-12.794,0l-.052.052c-.127.128-.248.26-.364.393v-12.63a7.785,7.785,0,0,0-7.791-7.789h-5.31a2.479,2.479,0,0,0-2.478,2.478v31.863a2.48,2.48,0,0,0,.726,1.752l15.205,15.205v6.938a2.479,2.479,0,0,0,2.478,2.48H137.43a2.479,2.479,0,0,0,2.478-2.48V488.321a15.648,15.648,0,0,0-4.614-11.139Zm5.728,35.785H121.323V501.41a2.48,2.48,0,0,0-.726-1.754l-15.205-15.205V456.094h2.83a2.831,2.831,0,0,1,2.832,2.832v18.587a2.48,2.48,0,0,0,.726,1.752L122.4,489.886h0a2.479,2.479,0,0,0,3.506-3.506l-.085-.083c.085.083-5.891-5.893-5.891-5.893a4.087,4.087,0,0,1,0-5.784l.036-.036a4.1,4.1,0,0,1,5.751.031l6.07,6.071a10.725,10.725,0,0,1,3.163,7.635V506.9Z" transform="translate(-2404.096 691.76)" fill="#fff"/>
    <path id="Path_359" data-name="Path 359" d="M163.472,451.137h-5.31a7.784,7.784,0,0,0-7.789,7.789v12.63c-.116-.133-.239-.265-.364-.393l-.052-.052a9.062,9.062,0,0,0-12.8,0l-6.07,6.071a15.648,15.648,0,0,0-4.614,11.139v21.053a2.479,2.479,0,0,0,2.478,2.48h18.587a2.479,2.479,0,0,0,2.478-2.48v-6.938l15.205-15.205a2.479,2.479,0,0,0,.726-1.752V453.615a2.479,2.479,0,0,0-2.48-2.478Zm-2.478,33.314-15.205,15.205a2.48,2.48,0,0,0-.726,1.754V506.9H131.434V488.321a10.718,10.718,0,0,1,3.163-7.633l6.07-6.073a4.1,4.1,0,0,1,5.751-.031l.036.036a4.087,4.087,0,0,1,0,5.784s-5.976,5.976-5.891,5.893l-.085.083a2.479,2.479,0,0,0,3.506,3.506h0L154.6,479.265a2.48,2.48,0,0,0,.726-1.752V458.926a2.831,2.831,0,0,1,2.832-2.832h2.83Z" transform="translate(-2385.001 691.76)" fill="#fff"/>
  </g>
</svg>
