<svg xmlns="http://www.w3.org/2000/svg" width="71.267" height="84.087" viewBox="0 0 71.267 84.087">
  <g id="innovation-education" transform="translate(1479.434 -1119)">
    <path id="Path_377" data-name="Path 377" d="M909.862,370.6c-1.878,0-3.755.017-5.633-.007-1.575-.019-3.151-.07-4.724-.135-1.065-.044-2.128-.094-3.193-.138-1.423-.06-2.844-.162-4.265-.251-1.156-.072-2.311-.14-3.467-.225s-2.286-.176-3.427-.282a1.08,1.08,0,0,1-1.125-1.256,12.205,12.205,0,0,1,.3-2.306,20.4,20.4,0,0,1,4.327-9.068,19.629,19.629,0,0,1,6.979-5.458,7.209,7.209,0,0,1,2.48-.628,3.658,3.658,0,0,1,1.169.119,2.345,2.345,0,0,1,1.586,1.294c1.4,2.721,2.818,5.431,4.226,8.148q1.352,2.609,2.7,5.221.374.725.753,1.449a2.811,2.811,0,0,0,.819.976,1.685,1.685,0,0,0,.36.208.614.614,0,0,0,.92-.323q.725-1.367,1.437-2.741,2.673-5.133,5.346-10.27c.379-.729.754-1.461,1.137-2.19a4.7,4.7,0,0,1,.853-1.22,2.636,2.636,0,0,1,1.811-.765,5.647,5.647,0,0,1,2.55.592,20.057,20.057,0,0,1,8.123,6.73,20.56,20.56,0,0,1,3.35,7.43,21.533,21.533,0,0,1,.4,2.574,3.327,3.327,0,0,1,.012.486.876.876,0,0,1-.657.879,5.814,5.814,0,0,1-1.372.195c-.76.07-1.522.126-2.284.188-.347.027-.693.061-1.04.077-1.273.056-2.542.174-3.813.239-1.5.079-3.007.162-4.513.219-1.167.044-2.338.08-3.506.135C915.608,370.625,912.736,370.614,909.862,370.6Z" transform="translate(-2353.581 809.911)" fill="#fff"/>
    <path id="Path_378" data-name="Path 378" d="M902.537,379.05c-.963,0-1.927-.032-2.886.007-1.307.055-2.617.077-3.924.174q-2.043.154-4.083.352c-1.142.111-2.275.278-3.414.411a22.189,22.189,0,0,1-2.668.195,8.915,8.915,0,0,1-2.743-.375,5.742,5.742,0,0,1-3.281-2.64,8.931,8.931,0,0,1-1.019-2.832,16.5,16.5,0,0,1-.222-4.5,12.133,12.133,0,0,1,.85-3.781,6.19,6.19,0,0,1,1.857-2.562,5.462,5.462,0,0,1,2.985-1.111,20.8,20.8,0,0,1,3.571.118c.761.061,1.524.1,2.287.155.9.063,1.8.13,2.7.193l2.287.157c.9.063,1.8.128,2.7.189.775.055,1.55.1,2.323.159.843.06,1.686.125,2.53.186q.64.046,1.282.089c1.063.072,2.125.147,3.188.217a1.666,1.666,0,0,1,1.541,1.108,19.411,19.411,0,0,1,.823,2.434,17.72,17.72,0,0,1,.541,5.409c-.005.1-.02.208-.036.311a1.411,1.411,0,0,1-1.424,1.4c-.71.106-1.429.148-2.144.217q-1.3.126-2.593.247c-.657.061-1.314.116-1.971.178-.854.08-1.705.166-2.559.247l-1.695.162q-1.695.161-3.388.321c-.647.06-1.292.114-1.939.172-.575.053-1.152.109-1.729.164-.9.085-1.8.162-2.7.258a14.643,14.643,0,0,1-2.222.063A3.533,3.533,0,0,1,882.9,375.5a3.823,3.823,0,0,1-.918-1.77,6.624,6.624,0,0,1-.031-2.76c.123-.731.265-1.459.4-2.188.056-.294.084-.314.4-.282.184.02.367.055.551.075a.262.262,0,0,1,.263.265c.036.323.08.643.14.963a4.537,4.537,0,0,0,.4,1.219,2.531,2.531,0,0,0,.6.763,1.657,1.657,0,0,0,1.884.113,2.57,2.57,0,0,0,.833-.918,3.773,3.773,0,0,0,.439-2.485,4.547,4.547,0,0,0-1.207-2.531,2.954,2.954,0,0,0-4.269-.12,6.147,6.147,0,0,0-1.673,2.724,10.1,10.1,0,0,0-.444,2.562,8.056,8.056,0,0,0,.317,2.953,5.533,5.533,0,0,0,2.828,3.449,4.615,4.615,0,0,0,2.54.406c.98-.087,1.961-.169,2.941-.254.854-.077,1.707-.157,2.56-.234q1.418-.128,2.837-.251c.623-.056,1.244-.12,1.867-.176s1.246-.111,1.869-.167q1.331-.118,2.662-.239c.958-.085,1.915-.167,2.871-.254.877-.08,1.753-.164,2.63-.244.772-.072,1.545-.143,2.316-.21.207-.017.268.034.3.246a1.955,1.955,0,0,1-.362,1.447,3.146,3.146,0,0,1-1.956,1.29,5.136,5.136,0,0,1-1.273.155c-.893-.005-1.785,0-2.676,0Z" transform="translate(-2357.672 818.109)" fill="#fff"/>
    <path id="Path_379" data-name="Path 379" d="M910.527,326.343a16.876,16.876,0,0,1,3.436.418c1.924.358,3.844.739,5.766,1.109q3.257.63,6.517,1.256c1.751.338,3.5.683,5.252,1.021q2.952.571,5.9,1.138a4.7,4.7,0,0,1,.874.225,1.144,1.144,0,0,1,.454.311c.108.126.09.2-.075.251-.232.072-.468.13-.7.189q-4.427,1.144-8.852,2.285-4.693,1.211-9.389,2.419c-2.019.521-4.036,1.055-6.057,1.563a11.307,11.307,0,0,1-3.123.437,13.065,13.065,0,0,1-2.775-.439c-1.528-.384-3.05-.792-4.574-1.186q-2.76-.717-5.518-1.429c-2.086-.543-4.17-1.092-6.254-1.635q-3.029-.786-6.057-1.563c-.449-.116-.9-.232-1.345-.352a3.515,3.515,0,0,1-.775-.306,1.38,1.38,0,0,1-.381-.3c-.14-.16-.124-.23.085-.277.521-.114,1.045-.215,1.567-.314.853-.16,1.71-.311,2.562-.473q4.422-.837,8.841-1.685,3.72-.714,7.435-1.441,2.831-.55,5.66-1.109A7.213,7.213,0,0,1,910.527,326.343Z" transform="translate(-2354.479 792.659)" fill="#fff"/>
    <path id="Path_380" data-name="Path 380" d="M931.878,371.495a16.7,16.7,0,0,1-.527,4.272c-.024.1-.056.2-.089.3a1.4,1.4,0,0,1-1.611,1.074c-.5-.019-.99-.087-1.486-.133-.667-.065-1.336-.128-2-.195q-2.04-.2-4.078-.4c-1.06-.1-2.122-.2-3.182-.3-1.118-.107-2.234-.22-3.352-.328-1.048-.1-2.1-.2-3.146-.3-1.07-.106-2.14-.222-3.212-.326-.818-.08-1.639-.142-2.454-.23-.6-.065-1.2-.087-1.794-.195a1.181,1.181,0,0,1-.483-.184.578.578,0,0,1-.265-.567,23.063,23.063,0,0,0,.108-2.811,25.557,25.557,0,0,0-.606-5.167c-.135-.611-.307-1.212-.476-1.814-.089-.314-.072-.333.254-.355,1.432-.1,2.862-.207,4.3-.288,1.318-.075,2.633-.176,3.95-.273q1.628-.12,3.258-.215c1.408-.084,2.816-.213,4.224-.311.924-.065,1.85-.106,2.774-.167.761-.051,1.522-.138,2.286-.171a11.7,11.7,0,0,1,3.079.1,4.53,4.53,0,0,1,2.611,1.669,7.88,7.88,0,0,1,1.362,2.757A15.407,15.407,0,0,1,931.878,371.495Z" transform="translate(-2340.048 818.116)" fill="#fff"/>
    <path id="Path_381" data-name="Path 381" d="M918.89,341.723a14.355,14.355,0,0,1-3.468,9.417,12.991,12.991,0,0,1-5.206,3.668,14.2,14.2,0,0,1-3.8.939,13.33,13.33,0,0,1-10.149-2.9,14.246,14.246,0,0,1-5.134-8.78,13.183,13.183,0,0,1-.125-3.5c.06-.657.13-1.314.225-1.966.108-.739.5-.913,1.1-.474a20.126,20.126,0,0,0,5.279,2.758,21.388,21.388,0,0,0,4.252,1.012,22.856,22.856,0,0,0,7.6-.247,21.4,21.4,0,0,0,5.5-1.915,19.71,19.71,0,0,0,2.659-1.642c.131-.1.258-.2.391-.29.214-.148.268-.137.338.109a13.3,13.3,0,0,1,.447,2.176A11.6,11.6,0,0,1,918.89,341.723Z" transform="translate(-2348.689 800.693)" fill="#fff"/>
    <path id="Path_382" data-name="Path 382" d="M905.405,344.975a22.043,22.043,0,0,1-10.311-2.381,14.1,14.1,0,0,1-2.415-1.5,4.189,4.189,0,0,1-1.589-3.016c-.148-1.569-.285-3.137-.428-4.7-.026-.278-.056-.553-.08-.831-.027-.326,0-.355.316-.268q1.423.389,2.847.787l7.932,2.209c.86.239,1.715.493,2.594.649a5.812,5.812,0,0,0,2.779-.15q5.678-1.756,11.475-3.079c.3-.07.606-.15.913-.213.251-.053.3-.012.288.232-.078,1.63-.154,3.262-.246,4.892a6.711,6.711,0,0,1-.23,1.369,3.873,3.873,0,0,1-1.588,2.169,20.3,20.3,0,0,1-3.408,1.939,21.585,21.585,0,0,1-5.651,1.654A18.94,18.94,0,0,1,905.405,344.975Z" transform="translate(-2348.954 796.821)" fill="#fff"/>
    <path id="Path_383" data-name="Path 383" d="M901.217,363.192q2.173,0,4.346,0a3.282,3.282,0,0,1,.483.043,1.165,1.165,0,0,1,.915.669,4.637,4.637,0,0,1,.268.64,20.234,20.234,0,0,1,.966,4.861,19.991,19.991,0,0,1-.442,5.8,18.949,18.949,0,0,1-.524,1.874,1.089,1.089,0,0,1-1.053.845c-.386.024-.763-.024-1.145-.024-2.64.005-5.282,0-7.925,0-.1,0-.21,0-.314,0-.2-.017-.242-.072-.172-.27.128-.372.278-.737.4-1.111a18.451,18.451,0,0,0,.86-4.6,18.12,18.12,0,0,0-1.174-7.631c-.1-.261-.217-.512-.318-.771-.084-.22-.051-.273.172-.3a2.173,2.173,0,0,1,.278-.01h4.38Z" transform="translate(-2344.875 818.704)" fill="#fff"/>
    <path id="Path_384" data-name="Path 384" d="M900.548,348.887c.43,0,.86-.022,1.287.005a2.011,2.011,0,0,1,1.852,1.251,1.947,1.947,0,0,1-1.161,2.6c-.584.208-.642.307-.683.92a7.37,7.37,0,0,0,1.077,4.317c.177.3.329.611.493.918a4.086,4.086,0,0,1,.256,3.492c-.113.3-.227.608-.364.9-.589,1.26-1.186,2.516-1.78,3.772a2.369,2.369,0,0,1-.519.734.878.878,0,0,1-.418.237c-.314.067-.447.012-.587-.278q-.934-1.943-1.859-3.89c-.259-.544-.507-1.094-.748-1.645a3.2,3.2,0,0,1-.065-2.439,13.956,13.956,0,0,1,.964-1.963,9.617,9.617,0,0,0,1.125-3.412,2.446,2.446,0,0,0-.053-.828,1.028,1.028,0,0,0-.715-.818,1.976,1.976,0,0,1-1.348-1.879,2.032,2.032,0,0,1,1.89-2c.45-.021.9,0,1.355,0Z" transform="translate(-2344.326 808.588)" fill="#fff"/>
    <path id="Path_385" data-name="Path 385" d="M924.85,374.323a28.109,28.109,0,0,1-3.711-.251c-.818-.089-1.633-.191-2.453-.249-.959-.07-1.915-.172-2.872-.247-.8-.061-1.594-.118-2.391-.155-1.574-.075-3.147-.15-4.721-.2-1.135-.034-2.272-.026-3.407-.026a7.353,7.353,0,0,1-.97-.077,1.173,1.173,0,0,1-1.108-.9,1.315,1.315,0,0,1,.6-1.314,1.941,1.941,0,0,1,1.033-.374,8.4,8.4,0,0,1,1.389.017c1.13.08,2.261.167,3.391.27.98.087,1.961.147,2.941.251.944.1,1.893.152,2.839.236.852.075,1.7.167,2.557.247.623.058,1.246.1,1.867.162,1.05.1,2.1.213,3.144.317.577.058,1.154.108,1.729.167q1.467.151,2.936.309c.517.056,1.034.116,1.553.171a.8.8,0,0,1,.42.15c.208.164.21.326-.015.464a6.075,6.075,0,0,1-1.167.534A9.662,9.662,0,0,1,924.85,374.323Z" transform="translate(-2340.031 823.877)" fill="#fff"/>
    <path id="Path_386" data-name="Path 386" d="M912.7,349.932h-1.4a2.3,2.3,0,0,1-.242-.009c-.471-.051-.64-.278-.606-.748a17.737,17.737,0,0,1,.744-3.352,8.973,8.973,0,0,0,.4-2.5,3.518,3.518,0,0,0-.27-1.389,1.236,1.236,0,0,1,.015-1.072,5.773,5.773,0,0,1,.364-.672,2.554,2.554,0,0,0,.4-1.447c-.024-2.074-.017-4.148-.024-6.223a2.5,2.5,0,0,1,.254-1.176.775.775,0,0,1,.418-.4c.213-.078.3-.034.348.183a2.053,2.053,0,0,1,.044.309c.027.521.058,1.041.075,1.562.026.763.068,1.529.051,2.292-.021.915-.024,1.83-.1,2.743a4.52,4.52,0,0,0,.125,1.483,1.76,1.76,0,0,0,.533.956.894.894,0,0,1,.268.949,3.84,3.84,0,0,1-.188.558c-.058.152-.125.3-.195.446a2.413,2.413,0,0,0-.179,1.69c.285,1.135.563,2.272.843,3.409q.233.945.468,1.889c.014.056.032.111.043.167.038.224.007.259-.225.278A18.919,18.919,0,0,1,912.7,349.932Z" transform="translate(-2334.903 795.891)" fill="#fff"/>
    <path id="Path_387" data-name="Path 387" d="M896.258,372.627a.757.757,0,0,1,.415-.118,14.068,14.068,0,0,1,2.006-.159c2.164.009,4.328.009,6.493.012a3.978,3.978,0,0,1,.725.07,1.458,1.458,0,0,1,1.062.712A8.5,8.5,0,0,1,908,375.777a2.739,2.739,0,0,1,.027.727c-.014.171-.07.2-.23.142a3.278,3.278,0,0,1-.314-.147l-3.745-1.907-.062-.032c-.72-.391-1.091-.3-1.533.468-.384.66-.741,1.336-1.109,2.005-.128.234-.249.471-.384.7s-.21.229-.382.024a1.942,1.942,0,0,1-.347-.713,7.585,7.585,0,0,0-.7-1.734,6.16,6.16,0,0,0-2.633-2.448c-.1-.049-.207-.1-.307-.157C896.272,372.7,896.272,372.666,896.258,372.627Z" transform="translate(-2344.936 825.179)" fill="#fff"/>
  </g>
</svg>