<svg id="nutrition" xmlns="http://www.w3.org/2000/svg" width="73.71" height="85.049" viewBox="0 0 73.71 85.049">
  <path id="Path_391" data-name="Path 391" d="M912,450.345a57.358,57.358,0,0,1,2.221-5.476,47.915,47.915,0,0,1,4.03-6.921c.377-.541.778-1.066,1.157-1.609.2-.281.381-.326.676-.11,1.8,1.315,3.6,2.617,5.41,3.922.771.559,1.533,1.13,2.318,1.67.319.217.283.353.016.58a43.015,43.015,0,0,0-9.31,11.165,27.081,27.081,0,0,0-2.083,4.31c-.043.121-.189.262-.068.376s.267-.005.39-.048c1.036-.344,2.065-.7,3.1-1.047a21.671,21.671,0,0,1,7.782-1.223,21.294,21.294,0,0,1,8.281,1.969c6.161,2.918,9.929,7.854,11.916,14.264a46.4,46.4,0,0,1,1.193,5.44,28.55,28.55,0,0,1-.507,11.775c-.521,2.211-.956,4.441-1.65,6.611a56.438,56.438,0,0,1-4.746,10.825,57.513,57.513,0,0,1-5.411,8.064,23.62,23.62,0,0,1-6.157,5.358,6.657,6.657,0,0,1-2.877.867c-2.494.231-4.712-.643-6.953-1.5a24.436,24.436,0,0,0-6.2-1.711,17.911,17.911,0,0,0-7.411.748c-1.566.5-3.094,1.111-4.634,1.684a11.193,11.193,0,0,1-3.079.758,8.4,8.4,0,0,1-5.76-1.408,29.735,29.735,0,0,1-7.222-7.421,62.7,62.7,0,0,1-7.209-13.45,66.484,66.484,0,0,1-2.633-9.54,28.32,28.32,0,0,1-.86-6.515,26.853,26.853,0,0,1,.3-4.723,50.67,50.67,0,0,1,1.4-6.239c2.337-7.06,6.737-12.222,13.888-14.7a20.315,20.315,0,0,1,12.112-.474c2.1.557,4.1,1.4,6.189,1.967.509.139.536.142.609-.392a32.422,32.422,0,0,1,.666-3.576c.093-.368.013-.477-.372-.5a18.472,18.472,0,0,1-5.524-1.148,10.342,10.342,0,0,1-6.346-7.288,17.949,17.949,0,0,1-.666-5.193c.005-.331.061-.579.47-.571a16.9,16.9,0,0,1,8.169,1.882,9.914,9.914,0,0,1,4.512,5.449A21.8,21.8,0,0,1,912,450.345Zm18.087,33.369a10.88,10.88,0,0,0-.11-1.428,9.875,9.875,0,0,0-17-5.271c-.34.349-.5.32-.82-.012a9.55,9.55,0,0,0-8.363-3.071,9.425,9.425,0,0,0-7.544,5.1c-1.869,3.425-1.427,6.862.281,10.193a22.305,22.305,0,0,0,4.334,5.527,73.757,73.757,0,0,0,10.816,8.651c.888.6.9.594,1.784-.005a78.436,78.436,0,0,0,9.212-7.126,32.347,32.347,0,0,0,5.232-5.865A12.971,12.971,0,0,0,930.089,483.715Z" transform="translate(-875.72 -436.094)" fill="#fff"/>
</svg>
