<svg id="oncology" xmlns="http://www.w3.org/2000/svg" width="82.955" height="84.789" viewBox="0 0 82.955 84.789">
  <path id="Path_342" data-name="Path 342" d="M145.411,289.831a15.341,15.341,0,0,1-15.144-14.623c-.062-2,0-1.816-1.908-1.186a7.529,7.529,0,0,0-4.991,4.972,26.285,26.285,0,0,1-1.582,3.246c-.418.8-.975,1.559-2.012,1.083a1.653,1.653,0,0,1-.727-2.363,35.887,35.887,0,0,1,1.988-4.193c.743-1.292.393-1.931-.9-2.462-1.428-.589-2.809-1.308-4.174-2.037-.881-.471-1.492-1.184-.885-2.239a1.588,1.588,0,0,1,2.366-.579c1.382.7,2.839,1.273,4.149,2.085a4.185,4.185,0,0,0,4.62.131c2.671-1.405,2.692-1.264,1.089-3.692a9.6,9.6,0,0,1-.5-10.425c.775-1.446.326-1.586-1.046-1.88a6.963,6.963,0,0,0-6.508,1.589,24.875,24.875,0,0,1-3,2.012c-.825.529-1.706.906-2.407-.127-.671-.993-.145-1.726.7-2.306,1.326-.906,2.625-1.858,3.993-2.7,1.021-.627,1.168-1.234.423-2.2-.874-1.135-1.634-2.356-2.441-3.542-.6-.885-1.227-1.832-.15-2.736,1.186-1,1.988-.057,2.756.742a21.708,21.708,0,0,1,2.648,4.2c.841,1.4,4.133,2.607,5.671,2.166.917-.262.508-.894.411-1.391a16.63,16.63,0,0,1-.057-7.163,15.266,15.266,0,0,1,20.538-10.733c1.374.538,1.589.257,1.657-1.119a5.688,5.688,0,0,0-2.17-5.271,27.08,27.08,0,0,1-2.807-2.786c-.713-.742-1.326-1.559-.386-2.526s1.745-.389,2.49.363c1.172,1.181,2.391,2.319,3.515,3.542.664.722,1.131.74,1.8.014,1.087-1.182,2.258-2.287,3.4-3.419.766-.761,1.621-1.52,2.651-.54s.324,1.867-.444,2.643c-1.333,1.345-2.681,2.674-4.009,4.025-.712.724-1.281,4.2-.839,5.05.37.708.8.127,1.12-.028a14.4,14.4,0,0,1,9.742-1.025,14.813,14.813,0,0,1,11.119,10.234c.708,2.087.572,1.841,2.409.874,3.474-1.83,3.827-4.942,3.966-8.26a14.42,14.42,0,0,1,.212-2.048,1.53,1.53,0,0,1,3.046.294,35.81,35.81,0,0,1-.441,4.958c-.306,1.577.349,1.906,1.7,1.942,1.485.039,2.968.23,4.451.359,1.018.09,1.889.476,1.766,1.646s-1,1.586-2.126,1.488a14.728,14.728,0,0,1-3.071-.313c-3.451-1.067-5.926.6-8.343,2.685-.846.731-.642,1.087.1,1.7a16.824,16.824,0,0,1,6.227,10.313,13.764,13.764,0,0,1-.308,4.775c-.189,1.055-.749.745-1.308.225a25.272,25.272,0,0,0-5.588-3.982,19.428,19.428,0,0,0-7.568-2.117,2.248,2.248,0,0,1-2.405-1.811,5.026,5.026,0,0,0-4.382-3.841c-2.3-.228-4.209.411-5.421,2.508-.74,1.283-1.048,2.512.381,3.637,1.161.913,1.018,1.565-.377,2.331-8.374,4.6-12.475,15.574-9.359,24.639.37,1.078.878,2.106,1.313,3.161.382.924-.021,1.416-.92,1.6A13.772,13.772,0,0,1,145.411,289.831Zm-7.464-43.567a5.467,5.467,0,0,0,3.57-9.793,2.083,2.083,0,0,0-2.223-.375,13.744,13.744,0,0,0-5.267,3.46c-1.508,1.625-1.588,3.08-.126,4.715A4.9,4.9,0,0,0,137.947,246.264Zm25.1-2.168a2.546,2.546,0,1,0-2.584,2.791A2.578,2.578,0,0,0,163.052,244.1Zm-24.884,21.17a2.4,2.4,0,0,0,2.591-2.543,2.609,2.609,0,0,0-2.733-2.837,2.47,2.47,0,0,0-2.443,2.71C135.6,264.4,136.435,265.268,138.168,265.267Zm4.844,10.11a2.542,2.542,0,0,0-2.458-2.743,2.778,2.778,0,0,0-.382,5.527A2.769,2.769,0,0,0,143.013,275.376Z" transform="translate(-113.541 -221.271)" fill="#c73b45"/>
  <path id="Path_343" data-name="Path 343" d="M152.729,242.784c13.337.057,22.461,14.011,17.126,26a2.6,2.6,0,0,0,.742,3.5c2.781,2.65,5.466,5.4,8.163,8.138,1.289,1.306,2.271,2.788,1.871,4.749a5.035,5.035,0,0,1-3.517,4.1,4.753,4.753,0,0,1-5.037-1.356c-2.958-2.963-5.936-5.908-8.823-8.938a2.1,2.1,0,0,0-2.832-.535c-10.892,5.181-24.462-1.966-26.238-14.666-1.292-9.259,5.593-18.954,15.007-20.643A14.392,14.392,0,0,1,152.729,242.784Zm12.765,18.648a12.763,12.763,0,0,0-12.526-13.023c-6.6-.26-13.213,6.74-12.963,12.756.3,7.218,5.7,13.057,12.933,12.864C161.271,273.8,165.776,267.227,165.494,261.432Z" transform="translate(-97.767 -204.723)" fill="#c73b45"/>
  <path id="Path_344" data-name="Path 344" d="M144.737,261.244a3.062,3.062,0,0,1-3.053-3.216,3.216,3.216,0,0,1,3.17-3.173,3.167,3.167,0,0,1,3.025,3.29A2.945,2.945,0,0,1,144.737,261.244Z" transform="translate(-91.873 -195.414)" fill="#c73b45"/>
  <path id="Path_345" data-name="Path 345" d="M140.868,256.226a2.13,2.13,0,0,1,.182-4.255,1.99,1.99,0,0,1,2.115,2.179A2.016,2.016,0,0,1,140.868,256.226Z" transform="translate(-94.02 -197.634)" fill="#c73b45"/>
</svg>
