<svg id="otology" xmlns="http://www.w3.org/2000/svg" width="84.46" height="75.756" viewBox="0 0 84.46 75.756">
  <path id="Path_360" data-name="Path 360" d="M241.386,506.358a31.4,31.4,0,0,1-2.6,13.249c-.9,2-2.2,3.769-3.267,5.675-2.653,4.739-5.364,9.446-7.587,14.414-.851,1.9-1.343,3.914-2.018,5.87a21.407,21.407,0,0,1-6.771,10.124,14.7,14.7,0,0,1-7.873,3.276,22.076,22.076,0,0,1-8.25-.424c-4.8-1.361-7.654-4.64-8.927-9.378a19.528,19.528,0,0,1-.505-2.718,2.3,2.3,0,0,1,2.074-2.665,2.331,2.331,0,0,1,2.533,2.045c.134.744.241,1.493.432,2.222.875,3.337,2.931,5.542,6.375,6.15a15.7,15.7,0,0,0,8.348-.515,12.852,12.852,0,0,0,6.61-6.174,21.844,21.844,0,0,0,2.026-5.052,36.535,36.535,0,0,1,2.282-5.95c2.793-5.9,6-11.579,9.355-17.181a22.83,22.83,0,0,0,2.98-10.3,39.246,39.246,0,0,0-.153-6.193,14.262,14.262,0,0,0-2.92-7.138,17.6,17.6,0,0,0-13.126-7.35,28.8,28.8,0,0,0-9.514.273c-6.779,1.567-11.121,5.924-13.8,12.152a20.89,20.89,0,0,0-1.265,3.732,2.365,2.365,0,1,1-4.554-1.074,30.055,30.055,0,0,1,2.448-6.509,24.03,24.03,0,0,1,12-11.506A27.4,27.4,0,0,1,218.7,483.5a29.793,29.793,0,0,1,7.013,1.166,22.152,22.152,0,0,1,14.537,13.856A23.882,23.882,0,0,1,241.386,506.358Z" transform="translate(-156.925 -483.399)" fill="#fff"/>
  <path id="Path_361" data-name="Path 361" d="M224.7,505.37a13.365,13.365,0,0,0-3.383-9.317,7.286,7.286,0,0,0-8.113-2.146,18.2,18.2,0,0,0-11.46,10.6,13.44,13.44,0,0,0-.646,2.859c-.086.47.093.673.6.595,1.271-.2,2.544-.4,3.823-.518a8.822,8.822,0,0,1,7.368,2.264,5.615,5.615,0,0,1,1.286,6.193,6.286,6.286,0,0,1-5.566,3.959,2.489,2.489,0,0,1-2.667-2.347,2.383,2.383,0,0,1,2.493-2.389,1.376,1.376,0,0,0,1.4-1.1c.2-.742-.286-1.161-.86-1.457a7.028,7.028,0,0,0-4.117-.352c-1.474.155-2.937.47-4.411.528-2.789.107-4.339-1.252-4.082-4.861.536-7.462,4.811-12.507,10.814-16.352a15.669,15.669,0,0,1,8.116-2.67,11.986,11.986,0,0,1,10.5,5.276A18.989,18.989,0,0,1,228.7,510.68a26.555,26.555,0,0,1-6.719,11.851q-2.142,2.252-4.32,4.471a15.179,15.179,0,0,0-4.154,7.451c-.395,1.78-1.452,2.1-2.964,1.089a11.951,11.951,0,0,0-11.274-1.428,16.752,16.752,0,0,1-1.591.534,2.085,2.085,0,0,1-2.627-1.057,2.278,2.278,0,0,1,.561-2.894,16.9,16.9,0,0,1,7.793-3.524,11.426,11.426,0,0,1,6.779,1.012c.352.165.612.2.843-.192,1.936-3.273,4.813-5.735,7.374-8.466a22.5,22.5,0,0,0,6.186-12.059A19.944,19.944,0,0,0,224.7,505.37Z" transform="translate(-154.763 -480.129)" fill="#fff"/>
  <path id="Path_362" data-name="Path 362" d="M183.344,516.158a1.973,1.973,0,0,0,.636-.927q2.163-4.317,4.309-8.642a2.567,2.567,0,0,1,2.576-1.65,2.493,2.493,0,0,1,2.429,1.952q2.564,7.6,5.109,15.2c.211.627.435,1.247.66,1.895.39-.2.443-.524.574-.787,2.083-4.152,4.188-8.3,6.221-12.473a3.477,3.477,0,0,1,3.57-2.238c.446.022.9-.014,1.343.016a2.24,2.24,0,0,0,1.744-.592,3.253,3.253,0,0,1,4.48.28,3.354,3.354,0,0,1,.1,4.515,3.229,3.229,0,0,1-4.461.464,3.364,3.364,0,0,0-2.28-.75,1.323,1.323,0,0,0-1.354.86q-2.8,5.686-5.655,11.349a15.237,15.237,0,0,1-1.015,1.832,3.633,3.633,0,0,1-3.43,1.721,3.748,3.748,0,0,1-3.4-2.485c-.641-1.639-1.162-3.327-1.724-5q-1.482-4.415-2.955-8.834c-.069-.2-.074-.451-.312-.592-.305.144-.365.473-.5.732-.971,1.924-1.922,3.858-2.888,5.785a3.977,3.977,0,0,1-7.552-.443c-.539-1.62-1.1-3.231-1.617-4.858-.176-.555-.392-.721-.948-.421a3.724,3.724,0,0,1-1.872.379c-1.175-.022-2.352.019-3.527-.019a1.934,1.934,0,0,1-.413-3.807,11.683,11.683,0,0,1,3.177-.1,2.572,2.572,0,0,0,2.064-.875c1.58-1.695,3.6-1.23,4.346.967C181.639,511.1,182.474,513.584,183.344,516.158Z" transform="translate(-169.748 -470.501)" fill="#fff"/>
</svg>
