<svg xmlns="http://www.w3.org/2000/svg" width="84.481" height="67.914" viewBox="0 0 84.481 67.914">
  <path id="partners" d="M494.65,582.282c.322-.371.626-.765.974-1.113q9.984-10,19.982-19.987c1.445-1.446,2.15-1.448,3.585-.015,2.272,2.272,4.563,4.526,6.8,6.832a3.231,3.231,0,0,0,2.05,1.041,11.18,11.18,0,0,1,5.889,2.546c.33.272.6.526,1.052.131a12.877,12.877,0,0,1,8.734-3.094,8.093,8.093,0,0,0,5.758-2.582c2.4-2.3,4.824-4.572,7.241-6.852a10.207,10.207,0,0,1,.933-.809,1.72,1.72,0,0,1,2.268.063,8.162,8.162,0,0,1,.6.566l17.537,17.537c1.439,1.441,1.439,2.146,0,3.587q-8.569,8.561-17.148,17.112c-.476.476-.485.728-.024,1.228a5.857,5.857,0,0,1-3.533,9.867c-.459.068-.645.2-.7.687a5.717,5.717,0,0,1-5.111,5.106.658.658,0,0,0-.678.646A5.831,5.831,0,0,1,545.714,620a.786.786,0,0,0-.756.792,5.8,5.8,0,0,1-9.582,3.611c-.7-.622-1.028-.583-1.7.013a5.8,5.8,0,0,1-9.573-3.641.8.8,0,0,0-.761-.8,5.77,5.77,0,0,1-5.139-5.207c-.072-.433-.263-.58-.691-.632a5.728,5.728,0,0,1-5.1-5.12c-.057-.5-.263-.609-.713-.669a5.879,5.879,0,0,1-5.18-5.791,5.675,5.675,0,0,1,1.722-4.15c.465-.45.383-.689-.035-1.108q-6.319-6.264-12.6-12.571c-.346-.346-.641-.748-.959-1.124Zm37.642,8.295a6.945,6.945,0,0,1-3.017-.695,6.7,6.7,0,0,1-1.754-10.774c1.305-1.372,2.661-2.7,4.02-4.017.4-.391.394-.622-.046-.961a9.555,9.555,0,0,0-3.254-1.528,2.231,2.231,0,0,0-2.481.685c-4.445,4.526-8.95,8.991-13.435,13.476-1.437,1.437-2.859,2.887-4.317,4.3-.432.42-.47.7-.013,1.131q1.414,1.322,2.737,2.737c.391.419.628.359.983-.02.733-.781,1.493-1.537,2.269-2.274a5.7,5.7,0,0,1,6.217-1.43,5.583,5.583,0,0,1,3.826,4.913c.054.465.269.572.687.615a5.683,5.683,0,0,1,5.085,4.932.842.842,0,0,0,.843.876,5.822,5.822,0,0,1,5.02,4.963c.113.68.426.839,1,.926a5.736,5.736,0,0,1,4.837,5.1,1.021,1.021,0,0,0,.228.683c.606.6,1.174,1.239,1.824,1.785a2.17,2.17,0,0,0,2.47.289,2.244,2.244,0,0,0,1.326-2.191,2.606,2.606,0,0,0-.93-1.856q-3.442-3.433-6.872-6.872c-1.1-1.106-1.222-2.122-.369-2.939.757-.726,1.857-.548,2.887.47.526.522,1.048,1.048,1.572,1.572,1.826,1.826,3.635,3.667,5.482,5.469a2.292,2.292,0,0,0,3.645-.237,2.419,2.419,0,0,0-.426-3.206q-3.511-3.536-7.046-7.05a2.181,2.181,0,0,1-.824-1.637,1.635,1.635,0,0,1,1.061-1.533,1.69,1.69,0,0,1,1.957.441c1.717,1.7,3.419,3.415,5.133,5.119.857.85,1.678,1.748,2.611,2.508a2.333,2.333,0,0,0,3.748-1.356,2.565,2.565,0,0,0-.906-2.433q-8.036-8.045-16.065-16.091c-.4-.405-.622-.344-.982.026-1.32,1.358-2.667,2.691-4.013,4.024a6.853,6.853,0,0,1-4.722,2.056m-3.285-6.791a3.245,3.245,0,0,0,1.709,2.9,3.284,3.284,0,0,0,4.039-.832c2.457-2.439,4.9-4.893,7.346-7.337a6.289,6.289,0,0,1,.661-.618,1.718,1.718,0,0,1,2.4,2.443,4.375,4.375,0,0,1-.683.711c-.419.339-.411.587-.015.981q6.458,6.417,12.874,12.876c.422.424.648.374,1.041-.022q3.822-3.867,7.7-7.684c.456-.446.413-.681-.015-1.105-1.695-1.683-3.348-3.406-5.019-5.117q-5.15-5.278-10.3-10.558c-.291-.3-.526-.417-.907-.139a10.865,10.865,0,0,1-6.448,1.861,9.106,9.106,0,0,0-6.437,2.522q-3.464,3.408-6.9,6.848a3.5,3.5,0,0,0-1.046,2.27m-11.53-19.337c-.289.015-.415.211-.567.363q-8.825,8.82-17.652,17.635c-.369.369-.42.6-.02.994q2.647,2.592,5.241,5.241c.333.337.546.417.924.035q8.864-8.9,17.759-17.76c.372-.372.322-.585-.024-.926-1.761-1.732-3.5-3.485-5.25-5.232-.133-.132-.287-.245-.411-.352M558.8,562.3a.817.817,0,0,0-.6.328c-1.6,1.5-3.185,3.019-4.8,4.511-.424.391-.313.657.033,1.011q7.586,7.781,15.15,15.58c.331.343.543.422.92.037q2.442-2.506,4.943-4.95c.352-.348.374-.574.011-.935q-7.639-7.612-15.256-15.247c-.133-.132-.289-.239-.406-.335m-46.3,42.54a2.411,2.411,0,0,0,1.9-.948q1.9-1.881,3.778-3.776a25.577,25.577,0,0,0,1.867-1.965,2.348,2.348,0,0,0-3.58-3.033c-1.9,1.861-3.769,3.748-5.641,5.633a2.928,2.928,0,0,0-.48.663,2.308,2.308,0,0,0,2.157,3.426m3.38,3.485a2.288,2.288,0,0,0,1.413,2.191,2.157,2.157,0,0,0,2.572-.492q2.906-2.853,5.765-5.756a2.356,2.356,0,1,0-3.354-3.3c-1.9,1.865-3.768,3.761-5.652,5.641a2.5,2.5,0,0,0-.745,1.719m8.16,8.193a2.011,2.011,0,0,0,1.519-.539c2.05-2.026,4.107-4.043,6.1-6.122a2.328,2.328,0,0,0-3.256-3.3c-2.1,2.009-4.15,4.078-6.172,6.169a2.086,2.086,0,0,0-.293,2.465,2.2,2.2,0,0,0,2.1,1.33m5.95,5.8a2.213,2.213,0,0,0,1.722-.789q2.767-2.753,5.522-5.522a3.1,3.1,0,0,0,.365-.443,2.347,2.347,0,0,0-.267-3.068,2.238,2.238,0,0,0-3.132-.083q-3.111,2.995-6.1,6.1a2.068,2.068,0,0,0-.332,2.52,2.244,2.244,0,0,0,2.224,1.285m9.159,0a2.317,2.317,0,0,0,1.7-3.98c-.339-.385-.613-.456-1-.031-.648.706-1.348,1.365-2.026,2.044-.881.882-.833,1.154.291,1.746a2.286,2.286,0,0,0,1.033.22" transform="translate(-494.65 -557.983)" fill="#fff"/>
</svg>
