<svg id="pharmaceutical" xmlns="http://www.w3.org/2000/svg" width="84.648" height="73.178" viewBox="0 0 84.648 73.178">
  <path id="Path_388" data-name="Path 388" d="M850.266,386.455a21.422,21.422,0,0,1,2.721.506,16.357,16.357,0,0,1,11.76,11.648,14.844,14.844,0,0,1,.6,4.8,16.056,16.056,0,0,1-4.394,10.863c-3.4,3.588-6.966,7.02-10.462,10.516Q838.3,436.966,826.1,449.125a15.69,15.69,0,0,1-8.9,4.428,16.256,16.256,0,0,1-13.019-3.411,15.986,15.986,0,0,1-5.958-9.983,16.473,16.473,0,0,1,1.5-10.53,15.673,15.673,0,0,1,2.955-4.114q17.139-17.134,34.282-34.264a16.428,16.428,0,0,1,9.25-4.661c.314-.051.63-.09.946-.134Zm-35.485,63.488c.309,0,.824-.056,1.336-.117a11.957,11.957,0,0,0,7.168-3.352c5.2-5.138,10.355-10.326,15.535-15.488.24-.238.123-.352-.049-.526q-8.766-8.752-17.521-17.519c-.217-.217-.332-.215-.547,0-5.064,5.075-10.162,10.115-15.193,15.222a12.294,12.294,0,0,0-3.417,11.713A12.8,12.8,0,0,0,814.781,449.943Zm28.142-50.667a2.139,2.139,0,0,0-1.313-2,2.252,2.252,0,0,0-2.577.547q-2.565,2.552-5.12,5.114c-1.456,1.456-2.92,2.9-4.365,4.372a2.22,2.22,0,1,0,3.15,3.13q4.8-4.781,9.581-9.577A2.125,2.125,0,0,0,842.923,399.275Zm3.812-8.192a2.151,2.151,0,0,0-2.209,2.172,2.2,2.2,0,1,0,4.406.045A2.144,2.144,0,0,0,846.736,391.084Z" transform="translate(-797.939 -386.455)" fill="#fff"/>
  <path id="Path_389" data-name="Path 389" d="M856.554,426.722a26.3,26.3,0,0,1-.506,2.722,16.558,16.558,0,0,1-2.415,5.219c-.218.316-.224.316-.533.005q-4.979-4.974-9.956-9.951-6.333-6.328-12.667-12.661c-.325-.325-.325-.325.06-.587a16.017,16.017,0,0,1,7.964-2.848,16.324,16.324,0,0,1,13.785,5.416A15.99,15.99,0,0,1,856.447,423c.029.206.07.41.106.616Z" transform="translate(-771.906 -368.634)" fill="#fff"/>
  <path id="Path_390" data-name="Path 390" d="M843.031,438.717A16.558,16.558,0,0,1,826.9,426.093a16.317,16.317,0,0,1,2.407-13.364c.28-.423.285-.421.638-.069q8.27,8.268,16.539,16.537,3.015,3.012,6.028,6.025c.336.336.336.338-.067.612a16.394,16.394,0,0,1-7.733,2.819c-.284.029-.569.051-.854.061S843.305,438.717,843.031,438.717Z" transform="translate(-775.008 -365.542)" fill="#fff"/>
</svg>
