<svg xmlns="http://www.w3.org/2000/svg" width="99.583" height="181" viewBox="0 0 99.583 181"><g transform="translate(-256.532 -305.82)"><g opacity="0.05"><path d="M356.06,353.18a49.7,49.7,0,0,0-99.34,2.33v.24c0,.17-.02.41-.04.74-1.02,18.04,1.93,66.76,51.22,129.18a3.043,3.043,0,0,0,4.14.59l.12-.09a3.028,3.028,0,0,0,.99-3.36c-.04-.12-1.2-3.6-2.61-9.39-3.44-14.16-8.33-42.08-1.79-68.29A49.684,49.684,0,0,0,356.06,353.18Zm-52.58,48.17c-5.58,20.29-4.51,41.38-2.09,57.28.61,4,1.3,7.67,2,10.92a272.99,272.99,0,0,1-17.67-28.1c-.01-.02-.01-.04-.02-.05-22.18-40.79-23.7-71.31-22.95-84.57a12.525,12.525,0,0,0,.04-1.5,43.615,43.615,0,1,1,43.61,43.79A3.028,3.028,0,0,0,303.48,401.35Z" fill="#003567"/></g><path d="M356.43,378.56a47.152,47.152,0,0,1-8.66,18.59,56.207,56.207,0,0,1-13.28,11.23l-.11.06a61.994,61.994,0,0,1-17.13,6.7l-.91.2v.02l-.24.97-.03.18c-2.94,20.95-2.475,43.118.135,53.9.73,2.96.225,2.612-.4.012-2.57-10.58-6.49-31.46-3.95-52.46.09-.75.19-1.5.3-2.24.18-1.28.38-2.54.61-3.78a57.429,57.429,0,0,0,33.69-18.26A58.251,58.251,0,0,0,356.43,378.56Z" transform="translate(-0.496 0.26)" fill="#003567"/></g></svg>