<svg xmlns="http://www.w3.org/2000/svg" width="197.113" height="197.952" viewBox="0 0 197.113 197.952"><g transform="translate(1758 -1804)"><g transform="translate(-2035.443 2175.108)"><path d="M379.35-244.32a29.664,29.664,0,0,1-7.93-5.18l-19.79,28a24.437,24.437,0,0,0-33.25,9.45,24.433,24.433,0,0,0,9.44,33.25,24.442,24.442,0,0,0,33.26-9.45,24.419,24.419,0,0,0-2.21-27.09ZM339.79-185.3a14.9,14.9,0,0,1-14.91-14.9,14.9,14.9,0,0,1,14.91-14.91,14.914,14.914,0,0,1,14.91,14.9A14.909,14.909,0,0,1,339.79-185.3Z"/><path d="M456.23-209.47a20.719,20.719,0,0,0-21.55-3.61l-24.05-35.54a29.5,29.5,0,0,1-8.18,4.82l24.52,36.22a20.745,20.745,0,0,0,1.89,29.27,20.745,20.745,0,0,0,29.27-1.9A20.725,20.725,0,0,0,456.23-209.47Zm-13.68,26.91a11.3,11.3,0,0,1-11.3-11.3,11.314,11.314,0,0,1,11.3-11.3,11.3,11.3,0,0,1,11.3,11.3A11.3,11.3,0,0,1,442.55-182.56Z"/><path d="M474.52-261.82a18.373,18.373,0,0,0-19.48-17.19,18.364,18.364,0,0,0-15.32,10.2l-18.28-3.63c.02.26.02.52.02.79a29.566,29.566,0,0,1-1.27,8.62l17.66,3.51a18.37,18.37,0,0,0,19.48,17.18A18.366,18.366,0,0,0,474.52-261.82Zm-18.34,10.04a8.9,8.9,0,0,1-8.9-8.9,8.9,8.9,0,0,1,8.9-8.89,8.89,8.89,0,0,1,8.89,8.89A8.892,8.892,0,0,1,456.18-251.78Z" fill="#c1c1c1"/><path d="M345.33-312.08a18.406,18.406,0,0,0-8.9-24.46,18.414,18.414,0,0,0-24.47,8.9,18.411,18.411,0,0,0,8.9,24.46,18.415,18.415,0,0,0,18.39-1.63l25.07,20.68a29.613,29.613,0,0,1,5.3-7.89Zm-16.65,1.16a8.9,8.9,0,0,1-8.89-8.9,8.885,8.885,0,0,1,8.9-8.89,8.89,8.89,0,0,1,8.89,8.89A8.92,8.92,0,0,1,328.68-310.92Z"/><path d="M456.79-369.21a22.986,22.986,0,0,0-30.22,11.94,22.984,22.984,0,0,0,4.21,24.74l-24.62,34.77a29.571,29.571,0,0,1,7.43,5.9l24.92-35.19a22.972,22.972,0,0,0,30.21-11.94A22.973,22.973,0,0,0,456.79-369.21Zm-9.21,34.56a13.437,13.437,0,0,1-13.44-13.44,13.443,13.443,0,0,1,13.44-13.44,13.437,13.437,0,0,1,13.44,13.44A13.437,13.437,0,0,1,447.58-334.65Z"/><g opacity="0.2"><path d="M308.319-358.924l10.739-10.739,5.37,5.37-10.74,10.739Z"/><path d="M277.443-328.06,288.182-338.8l5.37,5.37-10.74,10.739Z"/><path d="M278.791-364.311l5.369-5.369L294.9-358.942l-5.37,5.37Z"/></g><path d="M391.68-300.78a29.147,29.147,0,0,0-29.14,29.15,29.147,29.147,0,0,0,29.14,29.15,29.149,29.149,0,0,0,29.15-29.15A29.149,29.149,0,0,0,391.68-300.78Zm-.18,49.27a20.135,20.135,0,0,1-20.12-20.12,20.057,20.057,0,0,1,5.89-14.23,20.074,20.074,0,0,1,14.23-5.89,20.116,20.116,0,0,1,20.12,20.12A20.123,20.123,0,0,1,391.5-251.51Z" fill="#145793"/></g></g></svg>