<svg xmlns="http://www.w3.org/2000/svg" width="243" height="192.62" viewBox="0 0 243 192.62"><g transform="translate(-1427.282 -1762.506)"><g transform="translate(1447.509 1762.506)" opacity="0.2"><path d="M0,0H15.188V7.594H0Z" transform="translate(30.876 10.756) rotate(-45)"/><path d="M0,0H15.188V7.594H0Z" transform="translate(0 41.62) rotate(-45)"/><path d="M0,0H7.594V15.187H0Z" transform="translate(1.348 5.369) rotate(-45)"/></g><path d="M24.68,0A24.68,24.68,0,1,1,0,24.68,24.68,24.68,0,0,1,24.68,0Z" transform="translate(1524.103 1778.57)" fill="#fff" opacity="0.8"/><path d="M10.5,46.125A30.376,30.376,0,0,1,40.875,15.75H94.031a30.376,30.376,0,0,1,30.375,30.375v3.8H10.5Z" transform="translate(1481.329 1831.164)" fill="#fff" opacity="0.8"/><path d="M57.961,15.75H40.875A30.376,30.376,0,0,0,10.5,46.125v3.8H27.586v-3.8A30.376,30.376,0,0,1,57.961,15.75Z" transform="translate(1481.329 1831.164)" opacity="0.1"/><path d="M31.836,31.43A24.616,24.616,0,0,1,47.973,8.36,24.394,24.394,0,0,0,39.43,6.75,24.681,24.681,0,1,0,47.973,54.5,24.616,24.616,0,0,1,31.836,31.43Z" transform="translate(1509.353 1771.82)" opacity="0.1"/><path d="M44.375,66.75A30.375,30.375,0,1,1,74.75,36.375,30.406,30.406,0,0,1,44.375,66.75Zm0-49.359A18.984,18.984,0,1,0,63.359,36.375,19.006,19.006,0,0,0,44.375,17.391Z" transform="translate(1504.407 1766.875)" fill="#03427b"/><path d="M135.047,51.07H123.656a24.708,24.708,0,0,0-24.68-24.68H45.82a24.708,24.708,0,0,0-24.68,24.68H9.75A36.113,36.113,0,0,1,45.82,15H98.977A36.113,36.113,0,0,1,135.047,51.07Z" transform="translate(1476.384 1826.219)" fill="#03427b"/><path d="M2,28.5H245V39.891H2Z" transform="translate(1425.282 1915.234)"/><path d="M167.367,72.156H135.625V60.766h27.748l11.049-30.375H19.82L30.869,60.766H58.617V72.156H26.882A5.7,5.7,0,0,1,21.529,68.4L6.341,26.639A5.694,5.694,0,0,1,11.695,19H182.554a5.7,5.7,0,0,1,5.354,7.647L172.72,68.413A5.7,5.7,0,0,1,167.367,72.156Z" transform="translate(1451.658 1852.594)"/><path d="M95.461,77.92,84.207,76.181l6.584-42.8H24.33l6.584,42.8L19.66,77.92,12.066,28.561A5.689,5.689,0,0,1,17.693,22H97.428a5.7,5.7,0,0,1,5.627,6.569Z" transform="translate(1491.222 1872.375)"/><path d="M57.346,60.183H45.955A43.775,43.775,0,0,0,24.989,23.058L30.92,13.33A55.24,55.24,0,0,1,57.346,60.183Z" transform="translate(1576.866 1815.207)"/><circle cx="11.391" cy="11.391" r="11.391" transform="translate(1586.751 1818.438)"/></g></svg>