<svg xmlns="http://www.w3.org/2000/svg" width="226.67" height="166.131" viewBox="0 0 226.67 166.131"><g transform="translate(72.29 385.121)"><g opacity="0.2"><path d="M-41.414-374.365l10.74-10.739,5.37,5.37-10.74,10.739Z"/><path d="M-72.29-343.5l10.74-10.739,5.37,5.37-10.74,10.739Z"/><path d="M-70.942-379.752l5.37-5.369,10.739,10.738-5.37,5.37Z"/></g><path d="M37.86-355.97a2.8,2.8,0,0,0-2.01-.84,2.857,2.857,0,0,0-2.86,2.85,2.851,2.851,0,0,0,2.86,2.85,2.849,2.849,0,0,0,2.85-2.85A2.818,2.818,0,0,0,37.86-355.97Z"/><path d="M24.45-356.81a2.857,2.857,0,0,0-2.86,2.85,2.851,2.851,0,0,0,2.86,2.85,2.849,2.849,0,0,0,2.85-2.85A2.855,2.855,0,0,0,24.45-356.81Z"/><path d="M13.04-356.81a2.849,2.849,0,0,0-2.85,2.85,2.842,2.842,0,0,0,2.85,2.85,2.849,2.849,0,0,0,2.85-2.85A2.849,2.849,0,0,0,13.04-356.81Z"/><path d="M13.04-356.81a2.849,2.849,0,0,0-2.85,2.85,2.842,2.842,0,0,0,2.85,2.85,2.849,2.849,0,0,0,2.85-2.85A2.849,2.849,0,0,0,13.04-356.81Z"/><path d="M24.45-356.81a2.857,2.857,0,0,0-2.86,2.85,2.851,2.851,0,0,0,2.86,2.85,2.849,2.849,0,0,0,2.85-2.85A2.855,2.855,0,0,0,24.45-356.81Z"/><path d="M37.86-355.97a2.8,2.8,0,0,0-2.01-.84,2.857,2.857,0,0,0-2.86,2.85,2.851,2.851,0,0,0,2.86,2.85,2.849,2.849,0,0,0,2.85-2.85A2.818,2.818,0,0,0,37.86-355.97Z"/><path d="M37.86-355.97a2.8,2.8,0,0,0-2.01-.84,2.857,2.857,0,0,0-2.86,2.85,2.851,2.851,0,0,0,2.86,2.85,2.849,2.849,0,0,0,2.85-2.85A2.818,2.818,0,0,0,37.86-355.97Z"/><path d="M24.45-356.81a2.857,2.857,0,0,0-2.86,2.85,2.851,2.851,0,0,0,2.86,2.85,2.849,2.849,0,0,0,2.85-2.85A2.855,2.855,0,0,0,24.45-356.81Z"/><path d="M13.04-356.81a2.849,2.849,0,0,0-2.85,2.85,2.842,2.842,0,0,0,2.85,2.85,2.849,2.849,0,0,0,2.85-2.85A2.849,2.849,0,0,0,13.04-356.81Z"/><path d="M13.04-356.81a2.849,2.849,0,0,0-2.85,2.85,2.842,2.842,0,0,0,2.85,2.85,2.849,2.849,0,0,0,2.85-2.85A2.849,2.849,0,0,0,13.04-356.81Z"/><path d="M24.45-356.81a2.857,2.857,0,0,0-2.86,2.85,2.851,2.851,0,0,0,2.86,2.85,2.849,2.849,0,0,0,2.85-2.85A2.855,2.855,0,0,0,24.45-356.81Z"/><path d="M37.86-355.97a2.8,2.8,0,0,0-2.01-.84,2.857,2.857,0,0,0-2.86,2.85,2.851,2.851,0,0,0,2.86,2.85,2.849,2.849,0,0,0,2.85-2.85A2.818,2.818,0,0,0,37.86-355.97Z"/><path d="M37.86-355.97a2.8,2.8,0,0,0-2.01-.84,2.857,2.857,0,0,0-2.86,2.85,2.851,2.851,0,0,0,2.86,2.85,2.849,2.849,0,0,0,2.85-2.85A2.818,2.818,0,0,0,37.86-355.97Z"/><path d="M24.45-356.81a2.857,2.857,0,0,0-2.86,2.85,2.851,2.851,0,0,0,2.86,2.85,2.849,2.849,0,0,0,2.85-2.85A2.855,2.855,0,0,0,24.45-356.81Z"/><path d="M13.04-356.81a2.849,2.849,0,0,0-2.85,2.85,2.842,2.842,0,0,0,2.85,2.85,2.849,2.849,0,0,0,2.85-2.85A2.849,2.849,0,0,0,13.04-356.81Z"/><path d="M13.04-356.81a2.849,2.849,0,0,0-2.85,2.85,2.842,2.842,0,0,0,2.85,2.85,2.849,2.849,0,0,0,2.85-2.85A2.849,2.849,0,0,0,13.04-356.81Z"/><path d="M24.45-356.81a2.857,2.857,0,0,0-2.86,2.85,2.851,2.851,0,0,0,2.86,2.85,2.849,2.849,0,0,0,2.85-2.85A2.855,2.855,0,0,0,24.45-356.81Z"/><path d="M37.86-355.97a2.8,2.8,0,0,0-2.01-.84,2.857,2.857,0,0,0-2.86,2.85,2.851,2.851,0,0,0,2.86,2.85,2.849,2.849,0,0,0,2.85-2.85A2.818,2.818,0,0,0,37.86-355.97Z"/><path d="M37.86-355.97a2.8,2.8,0,0,0-2.01-.84,2.857,2.857,0,0,0-2.86,2.85,2.851,2.851,0,0,0,2.86,2.85,2.849,2.849,0,0,0,2.85-2.85A2.818,2.818,0,0,0,37.86-355.97Z"/><path d="M24.45-356.81a2.857,2.857,0,0,0-2.86,2.85,2.851,2.851,0,0,0,2.86,2.85,2.849,2.849,0,0,0,2.85-2.85A2.855,2.855,0,0,0,24.45-356.81Z"/><path d="M13.04-356.81a2.849,2.849,0,0,0-2.85,2.85,2.842,2.842,0,0,0,2.85,2.85,2.849,2.849,0,0,0,2.85-2.85A2.849,2.849,0,0,0,13.04-356.81Z"/><path d="M13.04-356.81a2.849,2.849,0,0,0-2.85,2.85,2.842,2.842,0,0,0,2.85,2.85,2.849,2.849,0,0,0,2.85-2.85A2.849,2.849,0,0,0,13.04-356.81Z"/><path d="M24.45-356.81a2.857,2.857,0,0,0-2.86,2.85,2.851,2.851,0,0,0,2.86,2.85,2.849,2.849,0,0,0,2.85-2.85A2.855,2.855,0,0,0,24.45-356.81Z"/><path d="M37.86-355.97a2.8,2.8,0,0,0-2.01-.84,2.857,2.857,0,0,0-2.86,2.85,2.851,2.851,0,0,0,2.86,2.85,2.849,2.849,0,0,0,2.85-2.85A2.818,2.818,0,0,0,37.86-355.97Z"/><path d="M37.86-355.97a2.8,2.8,0,0,0-2.01-.84,2.857,2.857,0,0,0-2.86,2.85,2.851,2.851,0,0,0,2.86,2.85,2.849,2.849,0,0,0,2.85-2.85A2.818,2.818,0,0,0,37.86-355.97Z"/><path d="M24.45-356.81a2.857,2.857,0,0,0-2.86,2.85,2.851,2.851,0,0,0,2.86,2.85,2.849,2.849,0,0,0,2.85-2.85A2.855,2.855,0,0,0,24.45-356.81Z"/><path d="M13.04-356.81a2.849,2.849,0,0,0-2.85,2.85,2.842,2.842,0,0,0,2.85,2.85,2.849,2.849,0,0,0,2.85-2.85A2.849,2.849,0,0,0,13.04-356.81Z"/><path d="M13.04-356.81a2.849,2.849,0,0,0-2.85,2.85,2.842,2.842,0,0,0,2.85,2.85,2.849,2.849,0,0,0,2.85-2.85A2.849,2.849,0,0,0,13.04-356.81Z"/><path d="M24.45-356.81a2.857,2.857,0,0,0-2.86,2.85,2.851,2.851,0,0,0,2.86,2.85,2.849,2.849,0,0,0,2.85-2.85A2.855,2.855,0,0,0,24.45-356.81Z"/><path d="M37.86-355.97a2.8,2.8,0,0,0-2.01-.84,2.857,2.857,0,0,0-2.86,2.85,2.851,2.851,0,0,0,2.86,2.85,2.849,2.849,0,0,0,2.85-2.85A2.818,2.818,0,0,0,37.86-355.97Z"/><path d="M37.86-355.97a2.8,2.8,0,0,0-2.01-.84,2.857,2.857,0,0,0-2.86,2.85,2.851,2.851,0,0,0,2.86,2.85,2.849,2.849,0,0,0,2.85-2.85A2.818,2.818,0,0,0,37.86-355.97Z"/><path d="M24.45-356.81a2.857,2.857,0,0,0-2.86,2.85,2.851,2.851,0,0,0,2.86,2.85,2.849,2.849,0,0,0,2.85-2.85A2.855,2.855,0,0,0,24.45-356.81Z"/><path d="M13.04-356.81a2.849,2.849,0,0,0-2.85,2.85,2.842,2.842,0,0,0,2.85,2.85,2.849,2.849,0,0,0,2.85-2.85A2.849,2.849,0,0,0,13.04-356.81Z"/><path d="M117.51-305.18a2.85,2.85,0,0,0-2.85,2.85v38.7a2.856,2.856,0,0,0,2.92,2.78,2.854,2.854,0,0,0,2.78-2.78v-38.7a2.85,2.85,0,0,0-2.85-2.85Z"/><path d="M72.32-246.53a2.849,2.849,0,0,0-2.85,2.85v7.89h5.69v-7.89A2.847,2.847,0,0,0,72.32-246.53Z"/><path d="M137.28-302.33v66.54H120.36v-14.54a2.848,2.848,0,0,0-2.92-2.77,2.852,2.852,0,0,0-2.78,2.77v14.53H95.14v.01H21.36v-.01H-.51V-336.7h72.5a2.85,2.85,0,0,0,2.85-2.85h0a2.85,2.85,0,0,0-2.85-2.85H-.51v-22.4a1.716,1.716,0,0,1,1.71-1.71H112.95a1.715,1.715,0,0,1,1.71,1.71v1.12h5.7v-1.12a7.411,7.411,0,0,0-7.41-7.41H1.2a7.411,7.411,0,0,0-7.41,7.41v129H-23.13v-95.94h7.265A2.855,2.855,0,0,0-13.01-334.6h0a2.855,2.855,0,0,0-2.855-2.855H-24.46a4.383,4.383,0,0,0-4.38,4.37v98.61a4.39,4.39,0,0,0,4.37,4.38H138.61a4.383,4.383,0,0,0,4.37-4.38v-67.86a2.85,2.85,0,0,0-2.85-2.85h0A2.85,2.85,0,0,0,137.28-302.33Z"/><path d="M80.45-270.02l-7.7-3.03a5.072,5.072,0,0,1-3.24-4.75v-3.22a20.3,20.3,0,0,0,7.87-16.04v-21.29A12,12,0,0,0,65.4-330.33H48.75a12,12,0,0,0-11.98,11.98v21.29a20.3,20.3,0,0,0,7.87,16.04v3.22a5.072,5.072,0,0,1-3.24,4.75l-7.7,3.03a18.554,18.554,0,0,0-11.82,17.36v16.87h5.7v-16.87a12.869,12.869,0,0,1,8.21-12.05l7.01-2.76a20.4,20.4,0,0,0,28.55,0l7.01,2.76a12.878,12.878,0,0,1,8.22,12.05v16.87h5.69v-16.87A18.554,18.554,0,0,0,80.45-270.02ZM42.47-318.35a6.278,6.278,0,0,1,6.28-6.28H65.4a6.291,6.291,0,0,1,6.28,6.28v10.89a8.2,8.2,0,0,1-2.38-.72,8.366,8.366,0,0,1-3.33-2.94,3.6,3.6,0,0,0-4.99-1.05c-.02.01-.04.03-.07.05a29.278,29.278,0,0,1-6.54,3.35,29.363,29.363,0,0,1-11.9,1.58Zm5.24,47.63a10.766,10.766,0,0,0,2.64-7.08v-.11a20.28,20.28,0,0,0,13.45,0v.11a10.785,10.785,0,0,0,2.64,7.08A14.681,14.681,0,0,1,47.71-270.72Zm9.37-11.74a14.609,14.609,0,0,1-14.61-14.61v-4.41c.71.05,1.43.07,2.14.07a34.682,34.682,0,0,0,11.68-2,34.635,34.635,0,0,0,6.18-2.94,13.8,13.8,0,0,0,9.21,4.62v4.66A14.606,14.606,0,0,1,57.08-282.46Z" fill="#03427b"/><path d="M38.98-243.68v7.89h5.7v-7.89a2.848,2.848,0,0,0-2.92-2.77A2.852,2.852,0,0,0,38.98-243.68Z"/><path d="M151.53-305.18a2.85,2.85,0,0,0-2.85,2.85v69.09a8.559,8.559,0,0,1-8.55,8.55H-25.98a8.568,8.568,0,0,1-8.56-8.55V-334.6a8.574,8.574,0,0,1,8.56-8.55h10.12A2.85,2.85,0,0,0-13.01-346h0a2.85,2.85,0,0,0-2.85-2.85H-25.98A14.278,14.278,0,0,0-40.24-334.6v101.36a14.271,14.271,0,0,0,14.26,14.25H140.13a14.256,14.256,0,0,0,14.25-14.25v-69.09a2.85,2.85,0,0,0-2.85-2.85Z"/><path d="M37.86-355.97a2.8,2.8,0,0,0-2.01-.84,2.857,2.857,0,0,0-2.86,2.85,2.851,2.851,0,0,0,2.86,2.85,2.849,2.849,0,0,0,2.85-2.85A2.818,2.818,0,0,0,37.86-355.97Z"/><path d="M24.45-356.81a2.857,2.857,0,0,0-2.86,2.85,2.851,2.851,0,0,0,2.86,2.85,2.849,2.849,0,0,0,2.85-2.85A2.855,2.855,0,0,0,24.45-356.81Z"/><path d="M13.04-356.81a2.849,2.849,0,0,0-2.85,2.85,2.842,2.842,0,0,0,2.85,2.85,2.849,2.849,0,0,0,2.85-2.85A2.849,2.849,0,0,0,13.04-356.81Z"/><path d="M13.04-356.81a2.849,2.849,0,0,0-2.85,2.85,2.842,2.842,0,0,0,2.85,2.85,2.849,2.849,0,0,0,2.85-2.85A2.849,2.849,0,0,0,13.04-356.81Z"/><path d="M24.45-356.81a2.857,2.857,0,0,0-2.86,2.85,2.851,2.851,0,0,0,2.86,2.85,2.849,2.849,0,0,0,2.85-2.85A2.855,2.855,0,0,0,24.45-356.81Z"/><path d="M37.86-355.97a2.8,2.8,0,0,0-2.01-.84,2.857,2.857,0,0,0-2.86,2.85,2.851,2.851,0,0,0,2.86,2.85,2.849,2.849,0,0,0,2.85-2.85A2.818,2.818,0,0,0,37.86-355.97Z"/><path d="M37.86-355.97a2.8,2.8,0,0,0-2.01-.84,2.857,2.857,0,0,0-2.86,2.85,2.851,2.851,0,0,0,2.86,2.85,2.849,2.849,0,0,0,2.85-2.85A2.818,2.818,0,0,0,37.86-355.97Z"/><path d="M24.45-356.81a2.857,2.857,0,0,0-2.86,2.85,2.851,2.851,0,0,0,2.86,2.85,2.849,2.849,0,0,0,2.85-2.85A2.855,2.855,0,0,0,24.45-356.81Z"/><path d="M13.04-356.81a2.849,2.849,0,0,0-2.85,2.85,2.842,2.842,0,0,0,2.85,2.85,2.849,2.849,0,0,0,2.85-2.85A2.849,2.849,0,0,0,13.04-356.81Z"/><path d="M13.04-356.81a2.849,2.849,0,0,0-2.85,2.85,2.842,2.842,0,0,0,2.85,2.85,2.849,2.849,0,0,0,2.85-2.85A2.849,2.849,0,0,0,13.04-356.81Z"/><path d="M24.45-356.81a2.857,2.857,0,0,0-2.86,2.85,2.851,2.851,0,0,0,2.86,2.85,2.849,2.849,0,0,0,2.85-2.85A2.855,2.855,0,0,0,24.45-356.81Z"/><path d="M37.86-355.97a2.8,2.8,0,0,0-2.01-.84,2.857,2.857,0,0,0-2.86,2.85,2.851,2.851,0,0,0,2.86,2.85,2.849,2.849,0,0,0,2.85-2.85A2.818,2.818,0,0,0,37.86-355.97Z"/><path d="M37.86-355.97a2.8,2.8,0,0,0-2.01-.84,2.857,2.857,0,0,0-2.86,2.85,2.851,2.851,0,0,0,2.86,2.85,2.849,2.849,0,0,0,2.85-2.85A2.818,2.818,0,0,0,37.86-355.97Z"/><path d="M24.45-356.81a2.857,2.857,0,0,0-2.86,2.85,2.851,2.851,0,0,0,2.86,2.85,2.849,2.849,0,0,0,2.85-2.85A2.855,2.855,0,0,0,24.45-356.81Z"/><path d="M13.04-356.81a2.849,2.849,0,0,0-2.85,2.85,2.842,2.842,0,0,0,2.85,2.85,2.849,2.849,0,0,0,2.85-2.85A2.849,2.849,0,0,0,13.04-356.81Z"/><path d="M13.04-356.81a2.849,2.849,0,0,0-2.85,2.85,2.842,2.842,0,0,0,2.85,2.85,2.849,2.849,0,0,0,2.85-2.85A2.849,2.849,0,0,0,13.04-356.81Z"/><path d="M24.45-356.81a2.857,2.857,0,0,0-2.86,2.85,2.851,2.851,0,0,0,2.86,2.85,2.849,2.849,0,0,0,2.85-2.85A2.855,2.855,0,0,0,24.45-356.81Z"/><path d="M37.86-355.97a2.8,2.8,0,0,0-2.01-.84,2.857,2.857,0,0,0-2.86,2.85,2.851,2.851,0,0,0,2.86,2.85,2.849,2.849,0,0,0,2.85-2.85A2.818,2.818,0,0,0,37.86-355.97Z"/><path d="M37.86-355.97a2.8,2.8,0,0,0-2.01-.84,2.857,2.857,0,0,0-2.86,2.85,2.851,2.851,0,0,0,2.86,2.85,2.849,2.849,0,0,0,2.85-2.85A2.818,2.818,0,0,0,37.86-355.97Z"/><path d="M24.45-356.81a2.857,2.857,0,0,0-2.86,2.85,2.851,2.851,0,0,0,2.86,2.85,2.849,2.849,0,0,0,2.85-2.85A2.855,2.855,0,0,0,24.45-356.81Z"/><path d="M13.04-356.81a2.849,2.849,0,0,0-2.85,2.85,2.842,2.842,0,0,0,2.85,2.85,2.849,2.849,0,0,0,2.85-2.85A2.849,2.849,0,0,0,13.04-356.81Z"/><path d="M13.04-356.81a2.849,2.849,0,0,0-2.85,2.85,2.842,2.842,0,0,0,2.85,2.85,2.849,2.849,0,0,0,2.85-2.85A2.849,2.849,0,0,0,13.04-356.81Z"/><path d="M24.45-356.81a2.857,2.857,0,0,0-2.86,2.85,2.851,2.851,0,0,0,2.86,2.85,2.849,2.849,0,0,0,2.85-2.85A2.855,2.855,0,0,0,24.45-356.81Z"/><path d="M37.86-355.97a2.8,2.8,0,0,0-2.01-.84,2.857,2.857,0,0,0-2.86,2.85,2.851,2.851,0,0,0,2.86,2.85,2.849,2.849,0,0,0,2.85-2.85A2.818,2.818,0,0,0,37.86-355.97Z"/><path d="M37.86-355.97a2.8,2.8,0,0,0-2.01-.84,2.857,2.857,0,0,0-2.86,2.85,2.851,2.851,0,0,0,2.86,2.85,2.849,2.849,0,0,0,2.85-2.85A2.818,2.818,0,0,0,37.86-355.97Z"/><path d="M24.45-356.81a2.857,2.857,0,0,0-2.86,2.85,2.851,2.851,0,0,0,2.86,2.85,2.849,2.849,0,0,0,2.85-2.85A2.855,2.855,0,0,0,24.45-356.81Z"/><path d="M13.04-356.81a2.849,2.849,0,0,0-2.85,2.85,2.842,2.842,0,0,0,2.85,2.85,2.849,2.849,0,0,0,2.85-2.85A2.849,2.849,0,0,0,13.04-356.81Z"/><path d="M13.04-356.81a2.849,2.849,0,0,0-2.85,2.85,2.842,2.842,0,0,0,2.85,2.85,2.849,2.849,0,0,0,2.85-2.85A2.849,2.849,0,0,0,13.04-356.81Z"/><path d="M24.45-356.81a2.857,2.857,0,0,0-2.86,2.85,2.851,2.851,0,0,0,2.86,2.85,2.849,2.849,0,0,0,2.85-2.85A2.855,2.855,0,0,0,24.45-356.81Z"/><path d="M37.86-355.97a2.8,2.8,0,0,0-2.01-.84,2.857,2.857,0,0,0-2.86,2.85,2.851,2.851,0,0,0,2.86,2.85,2.849,2.849,0,0,0,2.85-2.85A2.818,2.818,0,0,0,37.86-355.97Z"/><path d="M136.79-344.55H97.9a2.849,2.849,0,0,0-2.92,2.78,2.848,2.848,0,0,0,2.77,2.92h38.88a2.85,2.85,0,0,0,2.93-2.77A2.85,2.85,0,0,0,136.79-344.55Z" fill="#03427b"/><path d="M136.79-333.15H97.9a2.849,2.849,0,0,0-2.92,2.78,2.848,2.848,0,0,0,2.77,2.92h38.88a2.85,2.85,0,0,0,2.93-2.77A2.85,2.85,0,0,0,136.79-333.15Z" fill="#03427b"/><path d="M136.79-333.15H97.9a2.849,2.849,0,0,0-2.92,2.78,2.848,2.848,0,0,0,2.77,2.92h38.88a2.85,2.85,0,0,0,2.93-2.77A2.85,2.85,0,0,0,136.79-333.15Z" fill="#03427b"/><path d="M136.79-344.55H97.9a2.849,2.849,0,0,0-2.92,2.78,2.848,2.848,0,0,0,2.77,2.92h38.88a2.85,2.85,0,0,0,2.93-2.77A2.85,2.85,0,0,0,136.79-344.55Z" fill="#03427b"/><path d="M136.79-344.55H97.9a2.849,2.849,0,0,0-2.92,2.78,2.848,2.848,0,0,0,2.77,2.92h38.88a2.85,2.85,0,0,0,2.93-2.77A2.85,2.85,0,0,0,136.79-344.55Z" fill="#03427b"/><path d="M136.79-333.15H97.9a2.849,2.849,0,0,0-2.92,2.78,2.848,2.848,0,0,0,2.77,2.92h38.88a2.85,2.85,0,0,0,2.93-2.77A2.85,2.85,0,0,0,136.79-333.15Z" fill="#03427b"/><path d="M136.79-333.15H97.9a2.849,2.849,0,0,0-2.92,2.78,2.848,2.848,0,0,0,2.77,2.92h38.88a2.85,2.85,0,0,0,2.93-2.77A2.85,2.85,0,0,0,136.79-333.15Z" fill="#03427b"/><path d="M136.79-344.55H97.9a2.849,2.849,0,0,0-2.92,2.78,2.848,2.848,0,0,0,2.77,2.92h38.88a2.85,2.85,0,0,0,2.93-2.77A2.85,2.85,0,0,0,136.79-344.55Z" fill="#03427b"/><path d="M136.79-344.55H97.9a2.849,2.849,0,0,0-2.92,2.78,2.848,2.848,0,0,0,2.77,2.92h38.88a2.85,2.85,0,0,0,2.93-2.77A2.85,2.85,0,0,0,136.79-344.55Z" fill="#03427b"/><path d="M136.79-333.15H97.9a2.849,2.849,0,0,0-2.92,2.78,2.848,2.848,0,0,0,2.77,2.92h38.88a2.85,2.85,0,0,0,2.93-2.77A2.85,2.85,0,0,0,136.79-333.15Z" fill="#03427b"/><path d="M136.79-333.15H97.9a2.849,2.849,0,0,0-2.92,2.78,2.848,2.848,0,0,0,2.77,2.92h38.88a2.85,2.85,0,0,0,2.93-2.77A2.85,2.85,0,0,0,136.79-333.15Z" fill="#03427b"/><path d="M136.79-344.55H97.9a2.849,2.849,0,0,0-2.92,2.78,2.848,2.848,0,0,0,2.77,2.92h38.88a2.85,2.85,0,0,0,2.93-2.77A2.85,2.85,0,0,0,136.79-344.55Z" fill="#03427b"/><path d="M136.79-344.55H97.9a2.849,2.849,0,0,0-2.92,2.78,2.848,2.848,0,0,0,2.77,2.92h38.88a2.85,2.85,0,0,0,2.93-2.77A2.85,2.85,0,0,0,136.79-344.55Z" fill="#03427b"/><path d="M136.79-333.15H97.9a2.849,2.849,0,0,0-2.92,2.78,2.848,2.848,0,0,0,2.77,2.92h38.88a2.85,2.85,0,0,0,2.93-2.77A2.85,2.85,0,0,0,136.79-333.15Z" fill="#03427b"/><path d="M136.79-333.15H97.9a2.849,2.849,0,0,0-2.92,2.78,2.848,2.848,0,0,0,2.77,2.92h38.88a2.85,2.85,0,0,0,2.93-2.77A2.85,2.85,0,0,0,136.79-333.15Z" fill="#03427b"/><path d="M136.79-344.55H97.9a2.849,2.849,0,0,0-2.92,2.78,2.848,2.848,0,0,0,2.77,2.92h38.88a2.85,2.85,0,0,0,2.93-2.77A2.85,2.85,0,0,0,136.79-344.55Z" fill="#03427b"/><path d="M136.79-344.55H97.9a2.849,2.849,0,0,0-2.92,2.78,2.848,2.848,0,0,0,2.77,2.92h38.88a2.85,2.85,0,0,0,2.93-2.77A2.85,2.85,0,0,0,136.79-344.55Z" fill="#03427b"/><path d="M136.79-333.15H97.9a2.849,2.849,0,0,0-2.92,2.78,2.848,2.848,0,0,0,2.77,2.92h38.88a2.85,2.85,0,0,0,2.93-2.77A2.85,2.85,0,0,0,136.79-333.15Z" fill="#03427b"/><path d="M136.79-333.15H97.9a2.849,2.849,0,0,0-2.92,2.78,2.848,2.848,0,0,0,2.77,2.92h38.88a2.85,2.85,0,0,0,2.93-2.77A2.85,2.85,0,0,0,136.79-333.15Z" fill="#03427b"/><path d="M136.79-344.55H97.9a2.849,2.849,0,0,0-2.92,2.78,2.848,2.848,0,0,0,2.77,2.92h38.88a2.85,2.85,0,0,0,2.93-2.77A2.85,2.85,0,0,0,136.79-344.55Z" fill="#03427b"/><path d="M136.79-344.55H97.9a2.849,2.849,0,0,0-2.92,2.78,2.848,2.848,0,0,0,2.77,2.92h38.88a2.85,2.85,0,0,0,2.93-2.77A2.85,2.85,0,0,0,136.79-344.55Z" fill="#03427b"/><path d="M136.79-333.15H97.9a2.849,2.849,0,0,0-2.92,2.78,2.848,2.848,0,0,0,2.77,2.92h38.88a2.85,2.85,0,0,0,2.93-2.77A2.85,2.85,0,0,0,136.79-333.15Z" fill="#03427b"/><path d="M136.79-333.15H97.9a2.849,2.849,0,0,0-2.92,2.78,2.848,2.848,0,0,0,2.77,2.92h38.88a2.85,2.85,0,0,0,2.93-2.77A2.85,2.85,0,0,0,136.79-333.15Z" fill="#03427b"/><path d="M136.79-344.55H97.9a2.849,2.849,0,0,0-2.92,2.78,2.848,2.848,0,0,0,2.77,2.92h38.88a2.85,2.85,0,0,0,2.93-2.77A2.85,2.85,0,0,0,136.79-344.55Z" fill="#03427b"/><path d="M136.79-344.55H97.9a2.849,2.849,0,0,0-2.92,2.78,2.848,2.848,0,0,0,2.77,2.92h38.88a2.85,2.85,0,0,0,2.93-2.77A2.85,2.85,0,0,0,136.79-344.55Z" fill="#03427b"/><path d="M136.79-333.15H97.9a2.849,2.849,0,0,0-2.92,2.78,2.848,2.848,0,0,0,2.77,2.92h38.88a2.85,2.85,0,0,0,2.93-2.77A2.85,2.85,0,0,0,136.79-333.15Z" fill="#03427b"/><path d="M136.79-333.15H97.9a2.849,2.849,0,0,0-2.92,2.78,2.848,2.848,0,0,0,2.77,2.92h38.88a2.85,2.85,0,0,0,2.93-2.77A2.85,2.85,0,0,0,136.79-333.15Z" fill="#03427b"/><path d="M136.79-344.55H97.9a2.849,2.849,0,0,0-2.92,2.78,2.848,2.848,0,0,0,2.77,2.92h38.88a2.85,2.85,0,0,0,2.93-2.77A2.85,2.85,0,0,0,136.79-344.55Z" fill="#03427b"/><path d="M136.79-344.55H97.9a2.849,2.849,0,0,0-2.92,2.78,2.848,2.848,0,0,0,2.77,2.92h38.88a2.85,2.85,0,0,0,2.93-2.77A2.85,2.85,0,0,0,136.79-344.55Z" fill="#03427b"/><path d="M136.79-333.15H97.9a2.849,2.849,0,0,0-2.92,2.78,2.848,2.848,0,0,0,2.77,2.92h38.88a2.85,2.85,0,0,0,2.93-2.77A2.85,2.85,0,0,0,136.79-333.15Z" fill="#03427b"/><path d="M136.79-333.15H97.9a2.849,2.849,0,0,0-2.92,2.78,2.848,2.848,0,0,0,2.77,2.92h38.88a2.85,2.85,0,0,0,2.93-2.77A2.85,2.85,0,0,0,136.79-333.15Z" fill="#03427b"/><path d="M97.75-338.85h38.88a2.85,2.85,0,0,0,2.93-2.77,2.85,2.85,0,0,0-2.77-2.93H97.9a2.849,2.849,0,0,0-2.92,2.78A2.848,2.848,0,0,0,97.75-338.85Z" fill="#03427b"/><path d="M140.67-357.81H93.86a11.73,11.73,0,0,0-11.7,11.31v20.59a11.718,11.718,0,0,0,7.68,11c.09.03.18.06.26.09a11.411,11.411,0,0,0,3.76.63h5.65v5.47a4.033,4.033,0,0,0,4.04,4.03,4.018,4.018,0,0,0,2.85-1.18l6.26-6.26,1.95-2.06h26.37v-.01a11.34,11.34,0,0,0,3.42-.61,2.434,2.434,0,0,0,.32-.11,10.984,10.984,0,0,0,1.96-.93v.05a11.275,11.275,0,0,0,5.7-9.82V-346.1A11.719,11.719,0,0,0,140.67-357.81Zm6.01,31.91a6.009,6.009,0,0,1-6.01,6.01H114.39a4.872,4.872,0,0,0-3.47,1.44l-4.14,4.14-1.56,1.56v-2.22a4.929,4.929,0,0,0-4.92-4.92H93.86a6.028,6.028,0,0,1-6.01-6.01v-20.2a6.022,6.022,0,0,1,6.01-6.01h46.81a6.009,6.009,0,0,1,6.01,6.01Z" fill="#03427b"/><path d="M136.79-333.15H97.9a2.849,2.849,0,0,0-2.92,2.78,2.848,2.848,0,0,0,2.77,2.92h38.88a2.85,2.85,0,0,0,2.93-2.77A2.85,2.85,0,0,0,136.79-333.15Z" fill="#03427b"/><path d="M136.79-344.55H97.9a2.849,2.849,0,0,0-2.92,2.78,2.848,2.848,0,0,0,2.77,2.92h38.88a2.85,2.85,0,0,0,2.93-2.77A2.85,2.85,0,0,0,136.79-344.55Z" fill="#03427b"/><path d="M136.79-344.55H97.9a2.849,2.849,0,0,0-2.92,2.78,2.848,2.848,0,0,0,2.77,2.92h38.88a2.85,2.85,0,0,0,2.93-2.77A2.85,2.85,0,0,0,136.79-344.55Z" fill="#03427b"/><path d="M136.79-333.15H97.9a2.849,2.849,0,0,0-2.92,2.78,2.848,2.848,0,0,0,2.77,2.92h38.88a2.85,2.85,0,0,0,2.93-2.77A2.85,2.85,0,0,0,136.79-333.15Z" fill="#03427b"/><path d="M136.79-333.15H97.9a2.849,2.849,0,0,0-2.92,2.78,2.848,2.848,0,0,0,2.77,2.92h38.88a2.85,2.85,0,0,0,2.93-2.77A2.85,2.85,0,0,0,136.79-333.15Z" fill="#03427b"/><path d="M136.79-344.55H97.9a2.849,2.849,0,0,0-2.92,2.78,2.848,2.848,0,0,0,2.77,2.92h38.88a2.85,2.85,0,0,0,2.93-2.77A2.85,2.85,0,0,0,136.79-344.55Z" fill="#03427b"/><path d="M136.79-344.55H97.9a2.849,2.849,0,0,0-2.92,2.78,2.848,2.848,0,0,0,2.77,2.92h38.88a2.85,2.85,0,0,0,2.93-2.77A2.85,2.85,0,0,0,136.79-344.55Z" fill="#03427b"/><path d="M136.79-333.15H97.9a2.849,2.849,0,0,0-2.92,2.78,2.848,2.848,0,0,0,2.77,2.92h38.88a2.85,2.85,0,0,0,2.93-2.77A2.85,2.85,0,0,0,136.79-333.15Z" fill="#03427b"/><path d="M136.79-333.15H97.9a2.849,2.849,0,0,0-2.92,2.78,2.848,2.848,0,0,0,2.77,2.92h38.88a2.85,2.85,0,0,0,2.93-2.77A2.85,2.85,0,0,0,136.79-333.15Z" fill="#03427b"/><path d="M136.79-344.55H97.9a2.849,2.849,0,0,0-2.92,2.78,2.848,2.848,0,0,0,2.77,2.92h38.88a2.85,2.85,0,0,0,2.93-2.77A2.85,2.85,0,0,0,136.79-344.55Z" fill="#03427b"/><path d="M136.79-344.55H97.9a2.849,2.849,0,0,0-2.92,2.78,2.848,2.848,0,0,0,2.77,2.92h38.88a2.85,2.85,0,0,0,2.93-2.77A2.85,2.85,0,0,0,136.79-344.55Z" fill="#03427b"/><path d="M136.79-333.15H97.9a2.849,2.849,0,0,0-2.92,2.78,2.848,2.848,0,0,0,2.77,2.92h38.88a2.85,2.85,0,0,0,2.93-2.77A2.85,2.85,0,0,0,136.79-333.15Z" fill="#03427b"/><path d="M136.79-333.15H97.9a2.849,2.849,0,0,0-2.92,2.78,2.848,2.848,0,0,0,2.77,2.92h38.88a2.85,2.85,0,0,0,2.93-2.77A2.85,2.85,0,0,0,136.79-333.15Z" fill="#03427b"/><path d="M136.79-344.55H97.9a2.849,2.849,0,0,0-2.92,2.78,2.848,2.848,0,0,0,2.77,2.92h38.88a2.85,2.85,0,0,0,2.93-2.77A2.85,2.85,0,0,0,136.79-344.55Z" fill="#03427b"/><path d="M136.79-344.55H97.9a2.849,2.849,0,0,0-2.92,2.78,2.848,2.848,0,0,0,2.77,2.92h38.88a2.85,2.85,0,0,0,2.93-2.77A2.85,2.85,0,0,0,136.79-344.55Z" fill="#03427b"/><path d="M136.79-333.15H97.9a2.849,2.849,0,0,0-2.92,2.78,2.848,2.848,0,0,0,2.77,2.92h38.88a2.85,2.85,0,0,0,2.93-2.77A2.85,2.85,0,0,0,136.79-333.15Z" fill="#03427b"/><path d="M136.79-333.15H97.9a2.849,2.849,0,0,0-2.92,2.78,2.848,2.848,0,0,0,2.77,2.92h38.88a2.85,2.85,0,0,0,2.93-2.77A2.85,2.85,0,0,0,136.79-333.15Z" fill="#03427b"/><path d="M136.79-344.55H97.9a2.849,2.849,0,0,0-2.92,2.78,2.848,2.848,0,0,0,2.77,2.92h38.88a2.85,2.85,0,0,0,2.93-2.77A2.85,2.85,0,0,0,136.79-344.55Z" fill="#03427b"/><path d="M136.79-344.55H97.9a2.849,2.849,0,0,0-2.92,2.78,2.848,2.848,0,0,0,2.77,2.92h38.88a2.85,2.85,0,0,0,2.93-2.77A2.85,2.85,0,0,0,136.79-344.55Z" fill="#03427b"/><path d="M136.79-333.15H97.9a2.849,2.849,0,0,0-2.92,2.78,2.848,2.848,0,0,0,2.77,2.92h38.88a2.85,2.85,0,0,0,2.93-2.77A2.85,2.85,0,0,0,136.79-333.15Z" fill="#03427b"/><path d="M136.79-333.15H97.9a2.849,2.849,0,0,0-2.92,2.78,2.848,2.848,0,0,0,2.77,2.92h38.88a2.85,2.85,0,0,0,2.93-2.77A2.85,2.85,0,0,0,136.79-333.15Z" fill="#03427b"/><path d="M136.79-344.55H97.9a2.849,2.849,0,0,0-2.92,2.78,2.848,2.848,0,0,0,2.77,2.92h38.88a2.85,2.85,0,0,0,2.93-2.77A2.85,2.85,0,0,0,136.79-344.55Z" fill="#03427b"/><path d="M136.79-344.55H97.9a2.849,2.849,0,0,0-2.92,2.78,2.848,2.848,0,0,0,2.77,2.92h38.88a2.85,2.85,0,0,0,2.93-2.77A2.85,2.85,0,0,0,136.79-344.55Z" fill="#03427b"/><path d="M136.79-333.15H97.9a2.849,2.849,0,0,0-2.92,2.78,2.848,2.848,0,0,0,2.77,2.92h38.88a2.85,2.85,0,0,0,2.93-2.77A2.85,2.85,0,0,0,136.79-333.15Z" fill="#03427b"/><path d="M136.79-333.15H97.9a2.849,2.849,0,0,0-2.92,2.78,2.848,2.848,0,0,0,2.77,2.92h38.88a2.85,2.85,0,0,0,2.93-2.77A2.85,2.85,0,0,0,136.79-333.15Z" fill="#03427b"/><path d="M136.79-344.55H97.9a2.849,2.849,0,0,0-2.92,2.78,2.848,2.848,0,0,0,2.77,2.92h38.88a2.85,2.85,0,0,0,2.93-2.77A2.85,2.85,0,0,0,136.79-344.55Z" fill="#03427b"/><path d="M136.79-344.55H97.9a2.849,2.849,0,0,0-2.92,2.78,2.848,2.848,0,0,0,2.77,2.92h38.88a2.85,2.85,0,0,0,2.93-2.77A2.85,2.85,0,0,0,136.79-344.55Z" fill="#03427b"/><path d="M136.79-333.15H97.9a2.849,2.849,0,0,0-2.92,2.78,2.848,2.848,0,0,0,2.77,2.92h38.88a2.85,2.85,0,0,0,2.93-2.77A2.85,2.85,0,0,0,136.79-333.15Z" fill="#03427b"/><path d="M136.79-333.15H97.9a2.849,2.849,0,0,0-2.92,2.78,2.848,2.848,0,0,0,2.77,2.92h38.88a2.85,2.85,0,0,0,2.93-2.77A2.85,2.85,0,0,0,136.79-333.15Z" fill="#03427b"/><path d="M136.79-344.55H97.9a2.849,2.849,0,0,0-2.92,2.78,2.848,2.848,0,0,0,2.77,2.92h38.88a2.85,2.85,0,0,0,2.93-2.77A2.85,2.85,0,0,0,136.79-344.55Z" fill="#03427b"/><path d="M37.86-355.97a2.8,2.8,0,0,0-2.01-.84,2.857,2.857,0,0,0-2.86,2.85,2.851,2.851,0,0,0,2.86,2.85,2.849,2.849,0,0,0,2.85-2.85A2.818,2.818,0,0,0,37.86-355.97Z"/><path d="M24.45-356.81a2.857,2.857,0,0,0-2.86,2.85,2.851,2.851,0,0,0,2.86,2.85,2.849,2.849,0,0,0,2.85-2.85A2.855,2.855,0,0,0,24.45-356.81Z"/><path d="M13.04-356.81a2.849,2.849,0,0,0-2.85,2.85,2.842,2.842,0,0,0,2.85,2.85,2.849,2.849,0,0,0,2.85-2.85A2.849,2.849,0,0,0,13.04-356.81Z"/><path d="M13.04-356.81a2.849,2.849,0,0,0-2.85,2.85,2.842,2.842,0,0,0,2.85,2.85,2.849,2.849,0,0,0,2.85-2.85A2.849,2.849,0,0,0,13.04-356.81Z" fill="#03427b"/><path d="M37.86-355.97a2.8,2.8,0,0,0-2.01-.84,2.857,2.857,0,0,0-2.86,2.85,2.851,2.851,0,0,0,2.86,2.85,2.849,2.849,0,0,0,2.85-2.85A2.818,2.818,0,0,0,37.86-355.97Z" fill="#03427b"/><path d="M24.45-356.81a2.857,2.857,0,0,0-2.86,2.85,2.851,2.851,0,0,0,2.86,2.85,2.849,2.849,0,0,0,2.85-2.85A2.855,2.855,0,0,0,24.45-356.81Z" fill="#03427b"/><path d="M96.089-235.79" fill="none"/></g></svg>